<svg id="Layer_16" data-name="Layer 16" xmlns="http://www.w3.org/2000/svg" viewBox="0 0 1197.96 743.29"><defs><style>.cls-1{fill:#067a09;}.cls-1,.cls-2,.cls-6{fill-rule:evenodd;}.cls-2{fill:#029b0d;}.cls-3{fill:#ff9d00;}.cls-4{fill:#ffce00;}.cls-5{fill:#fff;}.cls-6{fill:#038209;}</style></defs><title>Artboard 8</title><path id="back_wing_6" data-name="back wing 6" class="cls-1" d="M589.53,581c5.25,9.34,19.26,11.47,19.26,11.47s-3.76,18,4.54,30.7c12.91,19.69,38.88,2.71,38.88,2.71s2.6,26.47,10.56,34.13c8.61,8.29,21.71,11.31,21.71,11.31s17.1-134.59,27.82-167.65c11.83-36.53,56.53-120.44,56.53-120.44S681.09,400.55,620.75,460c-20.55,20.26-33.84,38.22-39.51,54.83-5.58,16.36,10.2,22.42,10.2,22.42S580.18,564.42,589.53,581Z"/><path id="back_wing_5" data-name="back wing 5" class="cls-1" d="M467.75,446c1.43,8,16.37,14.41,16.37,14.41s-13.11,10.3-9.82,21.5c5.1,17.42,43,15.86,43,15.86s-9.95,18.07-4.62,25.91c5.77,8.49,19.23,15.2,19.23,15.2s85.25-80.82,113.61-98.31c31.34-19.32,123.3-57.35,123.3-57.35s-108.51-20.68-206.38-4.12c-33.33,5.64-57.25,12.42-71.83,21.11-14.36,8.55.68,18.2.68,18.2S465.19,431.9,467.75,446Z"/><path id="back_wing_4" data-name="back wing 4" class="cls-1" d="M466.2,414.14c2.18,3.3,18.06,5.76,18.06,5.76s-12.49,4.51-8.11,9.13c6.8,7.2,45.48,6,45.48,6s-8.56,7.7-2.39,10.89c6.67,3.45,21.06,6.05,21.06,6.05s80-35.07,107.46-42.82c30.34-8.55,121.07-25.86,121.07-25.86s-113-6.95-211.7,1.49c-33.62,2.87-57.51,6.07-71.66,9.92-13.93,3.8,2.35,7.59,2.35,7.59S462.3,408.28,466.2,414.14Z"/><path id="back_wing_3" data-name="back wing 3" class="cls-1" d="M465.39,404.86c1.59-3.63,16.81-8.79,16.81-8.79s-13.08-2.29-9.57-7.6c5.47-8.25,43.78-13.68,43.78-13.68s-9.76-6.11-4.23-10.32c6-4.55,19.72-9.58,19.72-9.58s84.82,20.8,113.21,23.7c33.58,3.44,33.27,3.24,123.72,4.66,0,0-110.11,26.27-208.81,34.94-33.61,2.95-57.69,3.9-72.29,2.54-14.38-1.34,1-7.88,1-7.88S462.56,411.3,465.39,404.86Z"/><path id="back_wing_2" data-name="back wing 2" class="cls-1" d="M464.17,341.14c.89-8,15.35-15.5,15.35-15.5s-13.78-9.38-11.27-20.78c3.91-17.73,41.84-18.76,41.84-18.76s-11.17-17.34-6.38-25.53c5.18-8.86,18.15-16.47,18.15-16.47s90.56,74.82,120,90.34c32.58,17.14,126.92,48.81,126.92,48.81s-106.85,28-205.62,18.18c-33.63-3.36-58-8.5-73.11-16.17-14.91-7.55-.55-18.2-.55-18.2S462.58,355.41,464.17,341.14Z"/><path id="back_wing_1" data-name="back wing 1" class="cls-1" d="M492.09,234.38C494.25,222,509,214.07,509,214.07s-11.28-18.52-7.05-35.84c6.58-26.93,42.07-18.3,42.07-18.3s-7.52-30.39-1.71-42c6.29-12.57,19.63-21.09,19.63-21.09s71.94,142.6,96.83,175.07c27.5,35.86,110.11,111.37,110.11,111.37s-104.15,15.33-194.5-26.93c-30.77-14.39-52.57-29.08-65.4-45.28-12.64-16,2.49-28.88,2.49-28.88S488.25,256.48,492.09,234.38Z"/><path id="body" class="cls-2" d="M833.68,243.85c-44,0-80.2,24.41-92.88,58.82-38.67-16.16-93.41-21.84-152.22-12.93-51.45,7.8-105.5,33.71-125.62,51.64-3.88,3.78-51.43,45.95-95.49,45.95-24.33,0-61.71-9.43-80.17-17.08-5.78-2.39-21-4.81-25,0-5.51,6.62-.94,12.57,3.83,25.51,1.47,4,.51,17.87-.87,22.83-3.07,11,4.56,14.69,9.29,17.77,10.33,6.71,37-.07,49.28-.51,13.86-.51,50,7.88,70.21,11.74,42.2,8.07,85,25.66,96.39,31.79,27.83,12,76.78,18.59,128.53,10.74,79.18-12,143.46-47.05,167.87-87C801,410,817.36,415.06,834.7,413.89c37.79-2.56,77.11-36.65,77.11-83.75S870.45,243.85,833.68,243.85Z"/><g id="beak"><path class="cls-3" d="M876.84,358.84a42.9,42.9,0,0,0,7.51,15.48c4.76,6.31,9,7.95,9,7.95s13.1,1.53,23.57-.19c6.39-1.06,21.31-3.25,21.31-3.25l-61.35-20Z"/><path class="cls-4" d="M911.38,339.5A65.78,65.78,0,0,0,895.09,345c-9.76,4.55-18.25,13.88-18.25,13.88l61.35,20s-9-15.63-12.69-20.95C919.65,349.38,911.38,339.5,911.38,339.5Z"/></g><ellipse id="eye" class="cls-5" cx="873.51" cy="315.33" rx="9.96" ry="12.26"/><ellipse id="dot" cx="878.36" cy="317.5" rx="2.81" ry="3.7"/><path id="front_wing_6" data-name="front wing 6" class="cls-6" d="M456.65,585.67c4.7,13,22,18.63,22,18.63s-8.59,22.09-.73,39.91c12.23,27.72,48.77,11.64,48.77,11.64s-2.28,34.15,6.2,45.55c9.18,12.34,25.16,18.94,25.16,18.94s50.12-167.2,70.69-206.9c22.73-43.86,97.17-140.91,97.17-140.91s-115,3.43-204.13,66.19c-30.35,21.37-51,41.35-61.71,61.24-10.54,19.58,8.21,30.6,8.21,30.6S448.29,562.63,456.65,585.67Z"/><path id="front_wing_5" data-name="front wing 5" class="cls-6" d="M424.87,435.31c1.43,7.95,16.37,14.41,16.37,14.41s-13.11,10.3-9.83,21.5c5.11,17.42,43,15.87,43,15.87s-10,18.06-4.62,25.91c5.76,8.48,19.23,15.19,19.23,15.19s85.24-80.82,113.61-98.31c31.33-19.32,123.29-57.35,123.29-57.35s-108.51-20.68-206.37-4.12c-33.33,5.64-57.25,12.42-71.84,21.11-14.36,8.55.69,18.2.69,18.2S422.31,421.18,424.87,435.31Z"/><path id="front_wing_4" data-name="front wing 4" class="cls-6" d="M423.31,403.42c2.19,3.3,18.07,5.77,18.07,5.77s-12.5,4.5-8.12,9.12c6.8,7.2,45.48,6,45.48,6s-8.56,7.7-2.39,10.89c6.67,3.45,21.07,6,21.07,6s80-35.07,107.45-42.82c30.34-8.55,121.07-25.86,121.07-25.86s-113-6.95-211.7,1.49c-33.62,2.87-57.51,6.07-71.65,9.92-13.94,3.8,2.34,7.59,2.34,7.59S419.42,397.56,423.31,403.42Z"/><path id="front_wing_3" data-name="front wing 3" class="cls-6" d="M422.5,394.14c1.59-3.63,16.81-8.79,16.81-8.79s-13.08-2.29-9.56-7.6c5.46-8.25,43.78-13.68,43.78-13.68s-9.76-6.12-4.23-10.32c6-4.55,19.71-9.58,19.71-9.58s84.83,20.8,113.21,23.7c31.37,3.21,123.72,4.66,123.72,4.66s-110.1,26.27-208.8,34.94c-33.62,2.95-57.7,3.9-72.3,2.54-14.37-1.34,1-7.88,1-7.88S419.68,400.58,422.5,394.14Z"/><path id="front_wing_2" data-name="front wing 2" class="cls-6" d="M421.29,330.42c.89-8,15.35-15.5,15.35-15.5s-13.78-9.38-11.27-20.78c3.91-17.73,41.84-18.76,41.84-18.76S456,258,460.83,249.85C466,241,479,233.37,479,233.37s90.56,74.83,120,90.35C631.61,340.86,726,372.53,726,372.53s-106.85,28-205.62,18.17c-33.63-3.35-58-8.49-73.11-16.16-14.91-7.55-.55-18.2-.55-18.2S419.7,344.69,421.29,330.42Z"/><path id="front_wing_1" data-name="front wing 1" class="cls-6" d="M400.08,264c0-13.79,14.36-25,14.36-25s-15.61-17.84-14.29-37.28c2-30.22,41.87-27.57,41.87-27.57s-13.79-31.32-9.7-44.94c4.41-14.72,17.19-26.38,17.19-26.38s104.14,140.08,137,170.38C622.85,306.69,726,372.53,726,372.53s-109.29,36-214.49,7.4c-35.82-9.73-62-21.47-78.9-36.51-16.58-14.82-2.71-31.57-2.71-31.57S400.08,288.53,400.08,264Z"/></svg>