<svg id="Layer_1" data-name="Layer 1" xmlns="http://www.w3.org/2000/svg" viewBox="0 0 131.76 80.75"><defs><style>.cls-1{fill:#d8d8cb;}.cls-2{fill:#e2e2dc;}.cls-3{fill:#fff;}</style></defs><title>cloud2</title><path class="cls-1" d="M117.52,63.53h0c4.86-2,8.46-5.19,9.86-8.9a26.91,26.91,0,0,1-3.26,3.92A30,30,0,0,1,117.52,63.53Z"/><path class="cls-2" d="M4.3,37.84a22.52,22.52,0,0,1,.22-2.28A16.47,16.47,0,0,0,0,46.43V47.5a42.83,42.83,0,0,1,5-3A24.22,24.22,0,0,1,4.3,37.84Z"/><path class="cls-3" d="M131.76,40.74c0-14.84-13.59-26.88-30.35-26.88a34.86,34.86,0,0,0-6.1.54C95,6.43,85.84,0,74.52,0,66.76,0,60,3,56.42,7.51a22.78,22.78,0,0,0-5-.55,23,23,0,0,0-17.81,8.4C27.69,14,21,14.81,14.12,19.15A18.28,18.28,0,0,0,11,21.69a17.45,17.45,0,0,0-2.66,3.39,27.17,27.17,0,0,0-3.8,10.48Q5.2,34.78,6,34a13.43,13.43,0,0,0-.09,1.55C5.87,47,6.84,55.23,21,58.1c3.73,7,11.83,11.8,21.25,11.8S59.92,65,63.6,57.92c1.78-.16,3.56-.33,5.31-.52a24.57,24.57,0,0,0,17.35,6.74c8.4,0,15.72-3.79,19.6-9.42a36,36,0,0,0,4.94.35c6.82,0,13-1.89,17.17-4.89a7.93,7.93,0,0,1,.06,1,9.84,9.84,0,0,1-.65,3.47,25.26,25.26,0,0,0,3.64-8A23.86,23.86,0,0,0,131.76,40.74Z"/><path class="cls-2" d="M128,50.18c-4.22,3-10.35,4.89-17.17,4.89a36,36,0,0,1-4.94-.35c-3.88,5.63-11.2,9.42-19.6,9.42A24.57,24.57,0,0,1,68.91,57.4c-1.75.19-3.53.36-5.31.52-3.68,7.07-11.84,12-21.33,12S24.75,65.07,21,58.1C6.84,55.23,5.87,47,5.87,35.58A13.43,13.43,0,0,1,6,34q-.76.75-1.44,1.53a22.52,22.52,0,0,0-.22,2.28A24.22,24.22,0,0,0,5,44.47,42.83,42.83,0,0,0,0,47.5C.07,58.39,1.42,66.17,15.16,69c3.72,7,11.83,11.8,21.24,11.8s17.66-4.92,21.33-12c1.78-.16,3.56-.33,5.31-.53A24.6,24.6,0,0,0,80.4,75c8.39,0,15.71-3.8,19.59-9.42a36.28,36.28,0,0,0,5,.35,32.91,32.91,0,0,0,12.58-2.39h0a30,30,0,0,0,6.6-5,26.91,26.91,0,0,0,3.26-3.92,9.84,9.84,0,0,0,.65-3.47A7.93,7.93,0,0,0,128,50.18Z"/></svg>