<svg id="Layer_1" data-name="Layer 1" xmlns="http://www.w3.org/2000/svg" viewBox="0 0 1929.48 3618.19"><defs><style>.cls-1{fill:#b0ab68;}.cls-2,.cls-6,.cls-7{fill:none;}.cls-3{fill:#a19851;}.cls-4{opacity:0.3;}.cls-5{fill:#92b9e3;}.cls-6,.cls-7{stroke:#000;stroke-miterlimit:10;}.cls-6{stroke-width:3px;}.cls-7{stroke-width:5px;}.cls-8{fill:#111110;}.cls-9{fill:#737043;}.cls-10{fill:#c5be7a;opacity:0.8;isolation:isolate;}</style></defs><title>frame2</title><g id="Layer_2-2" data-name="Layer 2-2"><g id="lift-frame"><g id="Elevator"><g id="Halvvæg"><g id="Lys"><path id="Path_206" data-name="Path 206" class="cls-1" d="M1389.34,3145.46v414.18H1156V3145.46h-59.56V3568H1448.9V3145.5Z"/><rect id="Rectangle_244" data-name="Rectangle 244" class="cls-1" x="1156.02" y="3137.14" width="233.32" height="8.32"/><path id="Path_207" data-name="Path 207" class="cls-1" d="M1379,3145.46v414.18H1166.12V3145.46h-54.34V3568h321.56V3145.5Z"/><rect id="Rectangle_245" data-name="Rectangle 245" class="cls-1" x="1166.13" y="3137.14" width="212.88" height="8.32"/><path id="Path_208" data-name="Path 208" class="cls-1" d="M1837.9,76.38V3256.71l-127.9,3c-67-4.3-101.1-21.42-142.07-44.39-59.33-33.28-101.81-83-145.4-134q-8.43-9.87-16.59-17.87a193,193,0,0,0-43.39-29.21,192.06,192.06,0,0,1,61.33,51.59C1467,3137.3,1509.24,3187.35,1568,3221c40.94,23.46,79.76,43.24,149.22,46.59l137.9-3V76.38Z"/><path id="lys-2" class="cls-1" d="M1837.9,3308.63v212.79H94.11V3311H76.92v234.54H1855.09V3308.63Z"/><path id="Path_209" data-name="Path 209" class="cls-1" d="M1149.09,3063.46q-8.19,8.09-16.59,17.88c-43.59,51-86.07,100.71-145.4,134-40.93,23-80.11,31.44-120.7,40.21-11.11,2.39-23,4.61-34.95,6.62H94.11v-1154l-.44-3V77.49H75.41V2819.31l.43,3V3269.8h749c14-2.35,28.41-5,41.58-7.89,40.59-8.94,79.78-17.55,120.7-41,55-31.45,95.48-77.3,135.79-125.23a194.37,194.37,0,0,1,54-52.93,194.65,194.65,0,0,0-27.78,20.68Z"/></g><g id="Ramme"><path id="Path_210" data-name="Path 210" class="cls-2" d="M1826.39,3309h-57.68a492.48,492.48,0,0,1-94.21-5.21c-22.48-3.42-74.7-11.77-131.76-39.76-35-17.21-110.64-54.28-155.53-121.74-9.31-14-23.35-38.4-53-50.18-19.65-7.81-40.5-7.81-56.11-7.81-15.08,0-35.6,0-56.21,7.81-24.57,9.31-37.13,25.1-52.91,43.17-32.39,37.09-69,73.29-94.11,93.89a366.54,366.54,0,0,1-94.17,55.38c-57.7,23.21-112.94,27.76-154.81,26.45h-749v228.38h1778.2V3309Z"/><path id="Path_211" data-name="Path 211" class="cls-3" d="M1860.94,79.38l-5.85-3V3264.53l-137.92,3c-69.43-3.35-108.28-23.17-149.21-46.59-58.75-33.62-101-83.67-144.1-135.15-66.14-84.81-185.5-97.51-266.61-28.35a194.44,194.44,0,0,0-34.36,38.26c-40.31,47.93-80.83,93.82-135.79,125.23-40.93,23.46-80.11,32.08-120.7,41-13.17,2.89-27.53,5.58-41.58,7.88h-749v-7.68l.27-3V76.38H0V3613.84l7.48,3v.35H1855.09v1l74.39-3V76.38Zm-5.85,3460H76.91V3311h749c41.88,1.29,97.1-3.25,154.8-26.46a366.54,366.54,0,0,0,94.17-55.38c25.12-20.61,61.72-56.81,94.11-93.89,15.78-18.07,28.39-33.86,52.9-43.17,20.62-7.82,41.14-7.82,56.22-7.82,15.61,0,36.46,0,56.11,7.82,29.67,11.78,43.71,36.19,53,50.18,44.86,67.5,120.48,104.57,155.53,121.74,57.06,28,109.28,36.33,131.76,39.76a492.48,492.48,0,0,0,94.21,5.21h86.39Z"/></g><g id="Group_2" data-name="Group 2" class="cls-4"><path id="Path_212" data-name="Path 212" class="cls-5" d="M1837.9,3539.39h17.19V3309H1729a494.89,494.89,0,0,1-54.48-5.21c-22.48-3.42-74.7-11.77-131.76-39.76-35-17.21-110.64-54.28-155.53-121.74-9.31-14-23.35-38.4-53-50.18-19.65-7.81-40.5-7.81-56.11-7.81-15.08,0-35.6,0-56.22,7.81-24.56,9.31-37.12,25.1-52.9,43.17-32.39,37.09-69,73.29-94.11,93.89a366.54,366.54,0,0,1-94.17,55.38C923,3307.76,867.8,3312.31,825.92,3311h-749v228.38Z"/></g><path id="Path_213" data-name="Path 213" class="cls-3" d="M1388.25,3192.15v414.19H1162.14V3192.15h-57.72v422.5H1446v-422.5Z"/><rect class="cls-1" x="93.67" y="80.49" width="1744.29" height="17.97"/><rect class="cls-3" width="1929.3" height="81.49"/><path class="cls-3" d="M1184.8,79.38c0,127.14-98.57,227.2-220.15,227.2S744.5,206.52,744.5,79.38Z"/><line class="cls-6" x1="769.23" y1="87.98" x2="821.56" y2="87.98"/><line class="cls-6" x1="1109.08" y1="87.98" x2="1161.41" y2="87.98"/><line class="cls-6" x1="965.81" y1="299.1" x2="965.81" y2="244.38"/><line class="cls-6" x1="1116.45" y1="225.05" x2="1079.45" y2="186.35"/><line class="cls-6" x1="830.88" y1="229.76" x2="867.88" y2="191.07"/><line class="cls-7" x1="877.22" y1="86.18" x2="965.82" y2="85.92"/><polygon points="847.05 84.86 883.54 105.92 883.54 66.98 847.05 84.86"/><circle class="cls-8" cx="965.82" cy="85.92" r="23.78"/></g><g id="Kontrol"><ellipse id="Ellipse_2" data-name="Ellipse 2" class="cls-9" cx="1275.75" cy="3219.05" rx="170.76" ry="178.55"/><path id="Path_214" data-name="Path 214" class="cls-2" d="M1117,3149.58a13.74,13.74,0,0,0-8.65.78v.16l-.48.2a14.42,14.42,0,0,0-8.08,10.24c-1.74,8.11,3.14,16.16,10.89,18s15.45-3.28,17.19-11.39-3.13-16.15-10.88-18Z"/><path id="Path_215" data-name="Path 215" class="cls-9" d="M1134.77,3143.09a28.86,28.86,0,0,0-13.45-8.25,5.82,5.82,0,0,1-1.26,1.53,5.45,5.45,0,0,1-7.68-.61l-.2-.25a6,6,0,0,1-.87-1.57,28.15,28.15,0,0,0-6.41,1.35.49.49,0,0,1,0,.17c-.65.21-1.29.44-1.92.71a5.61,5.61,0,0,1-.15,2,4.21,4.21,0,0,1-4.27,4.15h0a4.08,4.08,0,0,1-3.11-1.67c-.63.54-1.26,1.11-1.86,1.72a29.29,29.29,0,0,0-2.27,2.58c-.46.56-.9,1.15-1.31,1.76a5.64,5.64,0,0,1-.33,7.73,5.09,5.09,0,0,1-3.83,1.43c-.1.33-.18.68-.25,1h-.14c-.2.83-.38,1.67-.52,2.54a30.77,30.77,0,0,0-.4,5.16h0a4.35,4.35,0,0,1,4.54,4.13v0a4.53,4.53,0,0,1-1.78,3.93,5.5,5.5,0,0,1-1.26.8c.15.49.31,1,.48,1.43l-.22.17a31.42,31.42,0,0,0,2.84,5.9l.25-.12a5.49,5.49,0,0,1,7.27,2.69l.1.24a6,6,0,0,1-.13,5l-.12.27a28.19,28.19,0,0,0,7.47,4.1.45.45,0,0,1,.06-.28c15.16,5.61,31.8-2.69,37.16-18.54a31.45,31.45,0,0,0-6.51-31.32Zm-24.08,35.85c-7.75-1.8-12.63-9.84-10.9-17.94a15.21,15.21,0,0,1,2.67-5.94,14.3,14.3,0,0,1,5.41-4.34l.48-.2v-.16a14.18,14.18,0,0,1,18.57,7.57c.08.19.16.38.23.58a15.3,15.3,0,0,1-7.8,19.66,13.82,13.82,0,0,1-8.65.77Z"/><path id="Path_216" data-name="Path 216" class="cls-9" d="M1110.69,3189.89a48.84,48.84,0,0,0-24,12.41,10.2,10.2,0,0,1-5,13.54,10,10,0,0,1-2.68.82,9.16,9.16,0,0,1-3-.16,53.16,53.16,0,0,0-4.17,10.91,10.2,10.2,0,0,1,5.44,13,9.77,9.77,0,0,1-6.94,6.16c.15,1.46.34,2.93.61,4.46a55.21,55.21,0,0,0,2.31,8.56h.11a9.73,9.73,0,0,1,10.51,8.88s0,.08,0,.12a10.41,10.41,0,0,1-1.69,6.77,51.63,51.63,0,0,0,7.92,7.72,9.32,9.32,0,0,1,13.15-.83l.44.41a10.32,10.32,0,0,1,2.91,8.89c26.58,7.67,54.08-8.65,61.42-36.44s-8.26-56.56-34.85-64.23a47.89,47.89,0,0,0-22.57-1Zm23.08,71.07a24,24,0,0,1-33.87-2.13q-.47-.52-.9-1.08a26.62,26.62,0,0,1,3.07-36.36,24,24,0,0,1,33.87,2.12c.32.35.62.72.91,1.09h0a26.63,26.63,0,0,1-3.08,36.4Z"/><ellipse id="Ellipse_3" data-name="Ellipse 3" class="cls-10" cx="1275.2" cy="3205.88" rx="165.53" ry="173.09"/><ellipse id="Ellipse_4" data-name="Ellipse 4" class="cls-3" cx="1275.2" cy="3209.24" rx="165.53" ry="173.09"/><path id="Path_217" data-name="Path 217" class="cls-9" d="M1398.23,3221.83a26,26,0,0,0,13.42-5.76,107.63,107.63,0,0,1-7.2-47.17,26,26,0,0,0-27.26,5.65,114,114,0,0,0-19.71-34.7c12-1.79,21.29-11.88,22.55-24.48a99.44,99.44,0,0,1-34.58-28.64c-11.43,3.8-19,15.2-18.31,27.72a103.87,103.87,0,0,0-40.66-13,28.13,28.13,0,0,0-1.5-29.31,94.36,94.36,0,0,1-45.93,4.89,28.05,28.05,0,0,0,4.21,29,106.09,106.09,0,0,0-36.32,20.59,26.78,26.78,0,0,0-21.11-20.2,102.24,102.24,0,0,1-29.22,37.31,26.52,26.52,0,0,0,23.6,17.07,115.31,115.31,0,0,0-11.28,34.83,25.84,25.84,0,0,0-27.2.64,107.48,107.48,0,0,1,1.65,47.47,25.84,25.84,0,0,0,27.5-1.78,114.53,114.53,0,0,0,17.22,38.39,27.06,27.06,0,0,0-20.37,20,100.29,100.29,0,0,1,34.18,32.81,27.33,27.33,0,0,0,17.79-22.34,104.43,104.43,0,0,0,47.87,16,28.16,28.16,0,0,0,.52,25.69,94.61,94.61,0,0,1,48.89-6.7,28,28,0,0,0-5.83-24.89,106.53,106.53,0,0,0,37.14-23,26.78,26.78,0,0,0,21.57,18.77,102.78,102.78,0,0,1,27.93-38.45,26.42,26.42,0,0,0-24.16-16.09,116.61,116.61,0,0,0,10.16-42.72,25.53,25.53,0,0,0,14.44,2.39Z"/><path id="Path_218" data-name="Path 218" class="cls-1" d="M1397,3214.34a26.1,26.1,0,0,0,13.43-5.76,107.42,107.42,0,0,1-7.21-47.16A26,26,0,0,0,1376,3167a113.4,113.4,0,0,0-19.71-34.69c12-1.79,21.29-11.88,22.56-24.48a99.3,99.3,0,0,1-34.57-28.64c-11.44,3.78-19,15.19-18.32,27.71a104.25,104.25,0,0,0-40.67-13,28.15,28.15,0,0,0-1.49-29.31,94.36,94.36,0,0,1-45.93,4.88,28.07,28.07,0,0,0,4.2,29,106,106,0,0,0-36.31,20.58,26.8,26.8,0,0,0-21.12-20.2,102.11,102.11,0,0,1-29.22,37.32,26.52,26.52,0,0,0,23.6,17.07,115.31,115.31,0,0,0-11.28,34.83,25.82,25.82,0,0,0-27.18.63,108.44,108.44,0,0,1,2.87,15.48,106.68,106.68,0,0,1-1.24,32,25.84,25.84,0,0,0,27.5-1.78,115,115,0,0,0,17.22,38.39,27.06,27.06,0,0,0-20.37,20,100.32,100.32,0,0,1,34.19,32.81,27.36,27.36,0,0,0,17.78-22.34,104.55,104.55,0,0,0,47.88,16,28.13,28.13,0,0,0,.51,25.69,94.64,94.64,0,0,1,48.9-6.71,28,28,0,0,0-5.83-24.88,106.62,106.62,0,0,0,37.14-23,26.71,26.71,0,0,0,21.56,18.75,102.66,102.66,0,0,1,27.94-38.43,26.41,26.41,0,0,0-24.17-16.09,116.61,116.61,0,0,0,10.16-42.72,25.53,25.53,0,0,0,14.44,2.45Z"/><g id="Tandhjul"><path id="Path_219" data-name="Path 219" class="cls-3" d="M1198.7,3260.38a25.71,25.71,0,0,0-5.47,1.27,102.94,102.94,0,0,1-10.42-21.35,16.17,16.17,0,0,1-1.49,1,103.9,103.9,0,0,0,12.94,29.57,26.36,26.36,0,0,1,5.47-1.28c12.72-1.61,24.72,6.54,28.48,19.34a28.51,28.51,0,0,0-.13-4.62c-1.78-15.11-14.94-25.84-29.38-24Z"/><path id="Path_220" data-name="Path 220" class="cls-3" d="M1371.33,3221a104.68,104.68,0,0,1-7,24.85,25.35,25.35,0,0,0-6.74-.06c-14.47,1.66-24.91,15.28-23.32,30.41a27.81,27.81,0,0,0,1,4.78c.73-13.48,10.66-24.45,23.5-25.93a25.43,25.43,0,0,1,6.75.06,105.35,105.35,0,0,0,7.93-33.2C1372.7,3221.58,1372,3221.26,1371.33,3221Z"/><path id="Path_221" data-name="Path 221" class="cls-3" d="M1285.29,3285.88a27,27,0,0,0-22.72,20.52,94.53,94.53,0,0,1-33.33-10.93,28.73,28.73,0,0,1-.84,8.26,94.53,94.53,0,0,0,35.25,11.95c3.84-14.89,18.5-23.7,32.74-19.69a26.89,26.89,0,0,1,16.16,13,97,97,0,0,0,25-15.45,27.59,27.59,0,0,1-2.14-8.08v-.32a96.65,96.65,0,0,1-23.87,14.52A26.24,26.24,0,0,0,1285.29,3285.88Z"/><path id="Path_222" data-name="Path 222" class="cls-1" d="M1356.16,3195a27.76,27.76,0,0,1,10-20.27c-1-2.48-2.08-4.9-3.21-7.28a103.73,103.73,0,0,0-10.68-17.28,26.46,26.46,0,0,1-5.14,1.11c-14.45,1.86-27.61-8.89-29.39-24a26.69,26.69,0,0,1-.14-4.47c-.16-.53-.3-1.11-.43-1.62a94.09,94.09,0,0,0-28.17-8.72c-6.08,14.05-21.91,20.27-35.34,13.91a27,27,0,0,1-10.59-9,95.92,95.92,0,0,0-25.63,14.27v3.13a29.82,29.82,0,0,1,.91,4.59c1.58,15.14-8.86,28.76-23.33,30.43a26,26,0,0,1-7.63-.21,105.75,105.75,0,0,0-6,16.75c-.66,2.47-1.25,5-1.73,7.5,10.19,3.43,15.79,14.85,12.51,25.51a19.88,19.88,0,0,1-11.85,12.84q1.07,4.17,2.54,8.21a102.74,102.74,0,0,0,10.41,21.36,26.36,26.36,0,0,1,5.47-1.28c14.45-1.86,27.6,8.88,29.39,24a29.85,29.85,0,0,1,.12,4.63,27.93,27.93,0,0,1-.82,5.45c.62.36,1.26.69,1.89,1a94.76,94.76,0,0,0,33.34,10.92c3.85-14.88,18.52-23.68,32.76-19.65a26.92,26.92,0,0,1,16.12,13,96.65,96.65,0,0,0,23.87-14.52l1.07-.88a27.42,27.42,0,0,1-1.18-3.29,28.8,28.8,0,0,1-1-4.78c-1.59-15.13,8.85-28.74,23.32-30.41a25.35,25.35,0,0,1,6.74.07,104.89,104.89,0,0,0,7-24.86q.63-4.11,1-8.33A26.9,26.9,0,0,1,1356.16,3195Z"/></g></g></g></g></g></svg>