 <svg xmlns="http://www.w3.org/2000/svg" viewBox="0 0 1197.96 743.29">
    <defs>
        <style>
            .cls-1 {
                fill: #134aa3;
            }

            .cls-1,
            .cls-2,
            .cls-6 {
                fill-rule: evenodd;
            }

            .cls-2 {
                fill: #175ac6;
            }

            .cls-3 {
                fill: #ff9d00;
            }

            .cls-4 {
                fill: #ffce00;
            }

            .cls-5 {
                fill: #fff;
            }

            .cls-6 {
                fill: #1552b4;
            }
        </style>
    </defs>
    <title>Artboard 8</title>
    <path id="back-wing-1" data-name="back wing 1" class="cls-1"
            d="M492.09,271.38C494.25,259,509,251.07,509,251.07s-11.28-18.52-7.05-35.84c6.58-26.93,42.07-18.3,42.07-18.3s-7.52-30.39-1.71-42c6.29-12.57,19.63-21.09,19.63-21.09s71.94,142.6,96.83,175.07c27.5,35.86,110.11,111.37,110.11,111.37s-104.15,15.33-194.5-26.93c-30.77-14.39-52.57-29.08-65.4-45.28-12.64-16,2.49-28.88,2.49-28.88S488.25,293.48,492.09,271.38Z">

        <animate dur="1s" repeatCount="indefinite" attributeName="d" values="M492.09,271.38C494.25,259,509,251.07,509,251.07s-11.28-18.52-7.05-35.84c6.58-26.93,42.07-18.3,42.07-18.3s-7.52-30.39-1.71-42c6.29-12.57,19.63-21.09,19.63-21.09s71.94,142.6,96.83,175.07c27.5,35.86,110.11,111.37,110.11,111.37s-104.15,15.33-194.5-26.93c-30.77-14.39-52.57-29.08-65.4-45.28-12.64-16,2.49-28.88,2.49-28.88S488.25,293.48,492.09,271.38Z;
            
            M589.53,618c5.25,9.34,19.26,11.47,19.26,11.47s-3.76,18,4.54,30.7c12.91,19.69,38.88,2.71,38.88,2.71s2.6,26.47,10.56,34.13c8.61,8.29,21.71,11.31,21.71,11.31s17.1-134.59,27.82-167.65c11.83-36.53,56.53-120.44,56.53-120.44S681.09,437.55,620.75,497c-20.55,20.26-33.84,38.22-39.51,54.83-5.58,16.36,10.2,22.42,10.2,22.42S580.18,601.42,589.53,618Z;
            
            M492.09,271.38C494.25,259,509,251.07,509,251.07s-11.28-18.52-7.05-35.84c6.58-26.93,42.07-18.3,42.07-18.3s-7.52-30.39-1.71-42c6.29-12.57,19.63-21.09,19.63-21.09s71.94,142.6,96.83,175.07c27.5,35.86,110.11,111.37,110.11,111.37s-104.15,15.33-194.5-26.93c-30.77-14.39-52.57-29.08-65.4-45.28-12.64-16,2.49-28.88,2.49-28.88S488.25,293.48,492.09,271.38Z
            "></animate>

    </path>
    <path id="body" class="cls-2"
            d="M833.68,280.85c-44,0-80.2,24.41-92.88,58.82-38.67-16.16-93.41-21.84-152.22-12.93-51.45,7.8-105.5,33.71-125.62,51.64-3.88,3.78-51.43,45.95-95.49,45.95-24.33,0-61.71-9.43-80.17-17.08-5.78-2.39-21-4.81-25,0-5.51,6.62-.94,12.57,3.83,25.51,1.47,4,.51,17.87-.87,22.83-3.07,11,4.56,14.69,9.29,17.77,10.33,6.71,37-.07,49.28-.51,13.86-.51,50,7.88,70.21,11.74,42.2,8.07,85,25.66,96.39,31.79,27.83,12,76.78,18.59,128.53,10.74,79.18-12,143.46-47.05,167.87-87C801,447,817.36,452.06,834.7,450.89c37.79-2.56,77.11-36.65,77.11-83.75S870.45,280.85,833.68,280.85Z">
    </path>

    <g id="beak">
        <path class="cls-3"
                d="M876.84,395.84a42.9,42.9,0,0,0,7.51,15.48c4.76,6.31,9,7.95,9,7.95s13.1,1.53,23.57-.19c6.39-1.06,21.31-3.25,21.31-3.25l-61.35-20Z">
        </path>
        <path class="cls-4"
                d="M911.38,376.5A65.78,65.78,0,0,0,895.09,382c-9.76,4.55-18.25,13.88-18.25,13.88l61.35,20s-9-15.63-12.69-20.95C919.65,386.38,911.38,376.5,911.38,376.5Z">
        </path>
    </g>

    <ellipse id="eye" class="cls-5" cx="873.51" cy="352.33" rx="9.96" ry="12.26"></ellipse>
    <ellipse id="dot" cx="878.36" cy="354.5" rx="2.81" ry="3.7"></ellipse>
    <path id="front-wing-1" data-name="front wing 1" class="cls-6"
            d="M400.08,301c0-13.79,14.36-25,14.36-25s-15.61-17.84-14.29-37.28c2-30.22,41.87-27.57,41.87-27.57s-13.79-31.32-9.7-44.94c4.41-14.72,17.19-26.38,17.19-26.38s104.14,140.08,137,170.38C622.85,343.69,726,409.53,726,409.53s-109.29,36-214.49,7.4c-35.82-9.73-62-21.47-78.9-36.51-16.58-14.82-2.71-31.57-2.71-31.57S400.08,325.53,400.08,301Z">

        <animate dur="1s" repeatCount="indefinite" attributeName="d"
                    values="M400.08,301c0-13.79,14.36-25,14.36-25s-15.61-17.84-14.29-37.28c2-30.22,41.87-27.57,41.87-27.57s-13.79-31.32-9.7-44.94c4.41-14.72,17.19-26.38,17.19-26.38s104.14,140.08,137,170.38C622.85,343.69,726,409.53,726,409.53s-109.29,36-214.49,7.4c-35.82-9.73-62-21.47-78.9-36.51-16.58-14.82-2.71-31.57-2.71-31.57S400.08,325.53,400.08,301Z;

                    
                    M456.65,585.67c4.7,13,22,18.63,22,18.63s-8.59,22.09-.73,39.91c12.23,27.72,48.77,11.64,48.77,11.64s-2.28,34.15,6.2,45.55c9.18,12.34,25.16,18.94,25.16,18.94s50.12-167.2,70.69-206.9c22.73-43.86,97.17-140.91,97.17-140.91s-115,3.43-204.13,66.19c-30.35,21.37-51,41.35-61.71,61.24-10.54,19.58,8.21,30.6,8.21,30.6S448.29,562.63,456.65,585.67Z;

            M400.08,301c0-13.79,14.36-25,14.36-25s-15.61-17.84-14.29-37.28c2-30.22,41.87-27.57,41.87-27.57s-13.79-31.32-9.7-44.94c4.41-14.72,17.19-26.38,17.19-26.38s104.14,140.08,137,170.38C622.85,343.69,726,409.53,726,409.53s-109.29,36-214.49,7.4c-35.82-9.73-62-21.47-78.9-36.51-16.58-14.82-2.71-31.57-2.71-31.57S400.08,325.53,400.08,301Z">
        </animate>
    </path>
</svg>