<svg xmlns="http://www.w3.org/2000/svg" viewBox="0 0 1099.76 1437.46"><defs><style>.cls-1{fill:#e8bcb1;}.cls-2{fill:#e8816d;}.cls-3{fill:#e58670;}.cls-4{fill:#e26956;}.cls-5{fill:#ad4e49;}.cls-6{fill:#c9455b;}.cls-7{fill:#af5e56;}.cls-8{fill:#e04b6b;}.cls-9{fill:#e2817f;}.cls-10{fill:#db3a2a;}.cls-11{fill:#dd624e;}.cls-12{fill:#d34059;}.cls-13{fill:#e26d81;}.cls-14{fill:#e0715f;}.cls-15{fill:#d18b8b;}.cls-16{fill:#d37d79;}.cls-17{fill:#db786e;}.cls-18{fill:#c45e53;}.cls-19{fill:#993e00;}.cls-20{fill:#602700;}.cls-21{fill:#c66e60;}.cls-22{fill:#e2aa9f;}.cls-23{fill:#bf6056;}.cls-24{fill:#cc5e6c;}.cls-25{fill:#e2998d;}.cls-26{fill:#e59a95;}.cls-27{fill:#a04554;}.cls-28{fill:#e55441;}.cls-29{fill:#e5cfca;}.cls-30{fill:#e2543d;}.cls-31{fill:#ba3f32;}.cls-32{fill:#c47366;}.cls-33{fill:#20788c;}.cls-34{fill:#fc9;}.cls-34,.cls-35,.cls-36{fill-rule:evenodd;}.cls-35{fill:#b58e71;}.cls-36{fill:#b57c55;}</style></defs><title>gAsset 2</title><g id="Layer_2" data-name="Layer 2"><g id="Layer_1-2" data-name="Layer 1"><g id="Layer_1-2-2" data-name="Layer 1-2"><polygon class="cls-1" points="400.07 285.11 400.07 309.92 392.12 307.16 364.37 297.52 392.12 287.88 400.07 285.11"/><polygon class="cls-2" points="400.07 285.11 400.07 309.92 391.99 307.16 391.99 287.88 400.07 285.11"/><rect class="cls-3" x="396.04" y="283.73" width="4.03" height="60.52"/><rect class="cls-4" x="427.33" y="390.72" width="304.43" height="157.54"/><rect class="cls-5" x="427.33" y="507.65" width="304.43" height="40.61"/><polygon class="cls-6" points="731.75 390.72 366.98 390.72 366.98 332.01 672.22 332.01 731.75 390.72"/><rect class="cls-7" x="426.76" y="390.87" width="304.43" height="3.02"/><polygon class="cls-8" points="306.84 390.72 366.98 390.72 366.98 332.01 366.38 332.01 306.84 390.72"/><polygon class="cls-8" points="427.11 390.72 366.98 390.72 366.98 332.01 367.58 332.01 427.11 390.72"/><rect class="cls-7" x="427.33" y="390.87" width="304.43" height="3.02"/><rect class="cls-9" x="306.84" y="390.72" width="124.18" height="157.54"/><rect class="cls-10" x="306.84" y="507.65" width="124.18" height="40.61"/><rect class="cls-3" x="306.84" y="390.87" width="124.18" height="3.02"/><polygon class="cls-1" points="510.6 3.59 510.6 68.19 499.98 61 462.93 35.9 499.98 10.79 510.6 3.59"/><polygon class="cls-2" points="510.6 3.59 510.6 68.19 499.82 61 499.82 10.79 510.6 3.59"/><rect class="cls-3" x="505.22" width="5.38" height="180.07"/><rect class="cls-11" x="505.22" y="148.84" width="5.38" height="31.22"/><polyline class="cls-12" points="507.92 162.35 507.92 247.82 600.66 247.82"/><polyline class="cls-13" points="507.92 162.35 507.92 247.82 415.17 247.82"/><rect class="cls-14" x="547.48" y="279.48" width="37.5" height="360.34"/><rect class="cls-15" x="435.38" y="279.48" width="37.5" height="360.34"/><rect class="cls-16" x="472.89" y="279.48" width="37.5" height="360.34"/><rect class="cls-17" x="510.39" y="279.48" width="37.5" height="360.34"/><polygon class="cls-18" points="584.98 279.48 547.48 279.48 547.48 250.99 607.44 250.99 584.98 279.48"/><polygon class="cls-16" points="472.89 279.48 435.38 279.48 412.92 250.99 472.89 250.99 472.89 279.48"/><polygon class="cls-17" points="510.39 279.48 472.89 279.48 461.65 250.99 510.39 250.99 510.39 279.48"/><polygon class="cls-14" points="547.89 279.48 510.39 279.48 510.39 250.99 559.12 250.99 547.89 279.48"/><rect class="cls-1" x="400.75" y="244.21" width="216.16" height="7.22"/><rect class="cls-18" x="547.48" y="551.41" width="37.5" height="88.41"/><rect class="cls-16" x="435.38" y="551.41" width="37.5" height="88.41"/><rect class="cls-17" x="472.89" y="551.41" width="37.5" height="88.41"/><rect class="cls-14" x="510.39" y="551.41" width="37.5" height="88.41"/><path class="cls-19" d="M573.92,426.76v14.42H560.3V426.76a6.81,6.81,0,1,1,13.62,0Z"/><path class="cls-20" d="M569.05,426.76v14.42H560.3V426.76a4.69,4.69,0,1,1,8.75,0Z"/><rect class="cls-1" x="557.91" y="441.18" width="18.39" height="5.49"/><rect class="cls-11" x="557.91" y="446.67" width="18.39" height="9.31"/><path class="cls-19" d="M537.16,370.58V385H523.54V370.58a6.81,6.81,0,1,1,13.62,0Z"/><path class="cls-20" d="M532.3,370.58V385h-8.76V370.58a4.69,4.69,0,1,1,8.76,0Z"/><rect class="cls-1" x="521.15" y="385" width="18.39" height="5.49"/><rect class="cls-11" x="521.15" y="390.49" width="18.39" height="9.31"/><path class="cls-19" d="M537.16,426.76v14.42H523.54V426.76a6.8,6.8,0,0,1,13.18-2.39,7,7,0,0,1,.44,2.35Z"/><path class="cls-20" d="M532.3,426.76v14.42h-8.76V426.76a4.69,4.69,0,1,1,8.76,0Z"/><rect class="cls-1" x="521.15" y="441.18" width="18.39" height="5.49"/><rect class="cls-11" x="521.15" y="446.67" width="18.39" height="9.31"/><path class="cls-19" d="M486.05,426.76v14.42h13.62V426.76a6.8,6.8,0,0,0-13.18-2.39,7,7,0,0,0-.44,2.35Z"/><path class="cls-20" d="M490.91,426.76v14.42h8.76V426.76a4.69,4.69,0,1,0-8.76,0Z"/><rect class="cls-1" x="483.66" y="441.18" width="18.39" height="5.49"/><rect class="cls-11" x="483.66" y="446.67" width="18.39" height="9.31"/><polygon class="cls-1" points="283.57 287.35 283.57 337.65 272.96 332.05 235.9 312.51 272.96 292.95 283.57 287.35"/><polygon class="cls-2" points="283.57 287.35 283.57 337.65 272.79 332.05 272.79 292.95 283.57 287.35"/><rect class="cls-3" x="278.19" y="284.55" width="5.38" height="122.73"/><rect class="cls-1" x="220.97" y="448.01" width="47.73" height="219.7"/><rect class="cls-21" x="220.97" y="611.08" width="47.73" height="56.63"/><rect class="cls-22" x="173.05" y="448.01" width="47.73" height="219.7"/><rect class="cls-23" x="173.05" y="611.08" width="47.73" height="56.63"/><rect class="cls-3" x="265.25" y="448.01" width="176.64" height="219.7"/><rect class="cls-7" x="265.25" y="611.08" width="176.64" height="56.63"/><polygon class="cls-24" points="441.88 448.01 265.25 448.01 265.25 366.14 387.21 366.14 441.88 448.01"/><polygon class="cls-12" points="265.25 366.14 265.88 366.14 220.78 448.01 265.25 448.01 265.25 366.14"/><polygon class="cls-13" points="265.88 366.14 265.99 366.14 173.05 448.01 220.78 448.01 265.88 366.14"/><path class="cls-19" d="M302,469.46v14.42H288.39V469.46a6.8,6.8,0,0,1,13.18-2.39,7,7,0,0,1,.44,2.35h0Z"/><path class="cls-20" d="M297.15,469.46v14.42h-8.76V469.46a6.81,6.81,0,0,1,4.38-6.37A6.81,6.81,0,0,1,297.15,469.46Z"/><rect class="cls-1" x="286" y="483.88" width="18.39" height="5.49"/><rect class="cls-11" x="286" y="489.37" width="18.39" height="9.31"/><path class="cls-19" d="M248.7,469.46v14.42H235.07V469.46a6.82,6.82,0,0,1,13.63,0Z"/><path class="cls-20" d="M243.83,469.46v14.42h-8.76V469.46a6.81,6.81,0,0,1,4.38-6.37A6.81,6.81,0,0,1,243.83,469.46Z"/><rect class="cls-1" x="232.69" y="483.88" width="18.39" height="5.49"/><rect class="cls-11" x="232.69" y="489.37" width="18.39" height="9.31"/><path class="cls-19" d="M248.7,518.26v14.42H235.07V518.26a6.82,6.82,0,0,1,13.63,0Z"/><path class="cls-20" d="M243.83,518.26v14.42h-8.76V518.26a6.81,6.81,0,0,1,4.38-6.37A6.81,6.81,0,0,1,243.83,518.26Z"/><rect class="cls-1" x="232.69" y="532.68" width="18.39" height="5.49"/><rect class="cls-11" x="232.69" y="538.17" width="18.39" height="9.31"/><path class="cls-19" d="M203.2,469.46v14.42H189.58V469.46a6.8,6.8,0,0,1,13.18-2.39,7,7,0,0,1,.44,2.35Z"/><path class="cls-20" d="M198.34,469.46v14.42h-8.76V469.46a6.81,6.81,0,0,1,4.38-6.37A6.81,6.81,0,0,1,198.34,469.46Z"/><rect class="cls-1" x="187.19" y="483.88" width="18.39" height="5.49"/><rect class="cls-11" x="187.19" y="489.37" width="18.39" height="9.31"/><path class="cls-19" d="M203.2,518.26v14.42H189.58V518.26a6.8,6.8,0,0,1,13.18-2.39,7,7,0,0,1,.44,2.35Z"/><path class="cls-20" d="M198.34,518.26v14.42h-8.76V518.26a6.81,6.81,0,0,1,4.38-6.37A6.81,6.81,0,0,1,198.34,518.26Z"/><rect class="cls-1" x="187.19" y="532.68" width="18.39" height="5.49"/><rect class="cls-11" x="187.19" y="538.17" width="18.39" height="9.31"/><path class="cls-19" d="M359.12,469.46v14.42H345.49V469.46a6.82,6.82,0,0,1,13.63,0Z"/><path class="cls-20" d="M354.25,469.46v14.42h-8.76V469.46a6.81,6.81,0,0,1,4.38-6.37A6.81,6.81,0,0,1,354.25,469.46Z"/><rect class="cls-1" x="343.11" y="483.88" width="18.39" height="5.49"/><rect class="cls-11" x="343.11" y="489.37" width="18.39" height="9.31"/><path class="cls-19" d="M416.23,469.46v14.42H402.6V469.46a6.82,6.82,0,0,1,13.63,0Z"/><path class="cls-20" d="M411.36,469.46v14.42H402.6V469.46a6.81,6.81,0,0,1,4.38-6.37A6.81,6.81,0,0,1,411.36,469.46Z"/><rect class="cls-1" x="400.22" y="483.88" width="18.39" height="5.49"/><rect class="cls-11" x="400.22" y="489.37" width="18.39" height="9.31"/><path class="cls-19" d="M302,518.26v14.42H288.39V518.26a6.8,6.8,0,0,1,13.18-2.39,7,7,0,0,1,.44,2.35h0Z"/><path class="cls-20" d="M297.15,518.26v14.42h-8.76V518.26a6.81,6.81,0,0,1,4.38-6.37A6.81,6.81,0,0,1,297.15,518.26Z"/><rect class="cls-1" x="286" y="532.68" width="18.39" height="5.49"/><rect class="cls-11" x="286" y="538.17" width="18.39" height="9.31"/><path class="cls-19" d="M359.12,518.26v14.42H345.49V518.26a6.82,6.82,0,0,1,13.63,0Z"/><path class="cls-20" d="M354.25,518.26v14.42h-8.76V518.26a6.81,6.81,0,0,1,4.38-6.37A6.81,6.81,0,0,1,354.25,518.26Z"/><rect class="cls-1" x="343.11" y="532.68" width="18.39" height="5.49"/><rect class="cls-11" x="343.11" y="538.17" width="18.39" height="9.31"/><path class="cls-19" d="M416.23,518.26v14.42H402.6V518.26a6.82,6.82,0,0,1,13.63,0Z"/><path class="cls-20" d="M411.36,518.26v14.42H402.6V518.26a6.81,6.81,0,0,1,4.38-6.37A6.81,6.81,0,0,1,411.36,518.26Z"/><rect class="cls-1" x="400.22" y="532.68" width="18.39" height="5.49"/><rect class="cls-11" x="400.22" y="538.17" width="18.39" height="9.31"/><path class="cls-19" d="M248.7,567.24v14.42H235.07V567.24a6.82,6.82,0,0,1,13.63,0Z"/><path class="cls-20" d="M243.83,567.24v14.42h-8.76V567.24a6.81,6.81,0,0,1,4.38-6.36A6.81,6.81,0,0,1,243.83,567.24Z"/><rect class="cls-1" x="232.69" y="581.66" width="18.39" height="5.49"/><rect class="cls-11" x="232.69" y="587.15" width="18.39" height="9.31"/><path class="cls-19" d="M203.2,567.24v14.42H189.58V567.24a6.81,6.81,0,0,1,13.62,0Z"/><path class="cls-20" d="M198.34,567.24v14.42h-8.76V567.24a6.81,6.81,0,0,1,4.38-6.36A6.81,6.81,0,0,1,198.34,567.24Z"/><rect class="cls-1" x="187.19" y="581.66" width="18.39" height="5.49"/><rect class="cls-11" x="187.19" y="587.15" width="18.39" height="9.31"/><path class="cls-19" d="M302,567.24v14.42H288.39V567.24a6.81,6.81,0,0,1,13.62,0Z"/><path class="cls-20" d="M297.15,567.24v14.42h-8.76V567.24a6.81,6.81,0,0,1,4.38-6.36A6.81,6.81,0,0,1,297.15,567.24Z"/><rect class="cls-1" x="286" y="581.66" width="18.39" height="5.49"/><rect class="cls-11" x="286" y="587.15" width="18.39" height="9.31"/><path class="cls-19" d="M359.12,567.24v14.42H345.49V567.24a6.82,6.82,0,0,1,13.63,0Z"/><path class="cls-20" d="M354.25,567.24v14.42h-8.76V567.24a6.81,6.81,0,0,1,4.38-6.36A6.81,6.81,0,0,1,354.25,567.24Z"/><rect class="cls-1" x="343.11" y="581.66" width="18.39" height="5.49"/><rect class="cls-11" x="343.11" y="587.15" width="18.39" height="9.31"/><path class="cls-19" d="M416.23,567.24v14.42H402.6V567.24a6.82,6.82,0,0,1,13.63,0Z"/><path class="cls-20" d="M411.36,567.24v14.42H402.6V567.24a6.81,6.81,0,0,1,4.38-6.36A6.81,6.81,0,0,1,411.36,567.24Z"/><rect class="cls-1" x="400.22" y="581.66" width="18.39" height="5.49"/><rect class="cls-11" x="400.22" y="587.15" width="18.39" height="9.31"/><rect class="cls-7" x="264.73" y="448.22" width="176.64" height="4.21"/><rect class="cls-21" x="220.25" y="448.22" width="44.47" height="4.21"/><rect class="cls-23" x="172.53" y="448.22" width="47.73" height="4.21"/><polyline class="cls-13" points="311.54 399.71 363.81 399.71 344.11 432.29"/><path class="cls-12" d="M357.56,399.71h5.68a13.45,13.45,0,0,1,13.45,13.45h0v19.13H344.11V413.16a13.45,13.45,0,0,1,13.45-13.45Z"/><path class="cls-13" d="M369.48,416v16.29H353.57V416a7.94,7.94,0,0,1,5.81-7.65,7.79,7.79,0,0,1,2.14-.3,7.93,7.93,0,0,1,8,7.86V416Z"/><path class="cls-20" d="M365.17,416v16.29h-11.6V416a7.94,7.94,0,0,1,5.81-7.65A7.9,7.9,0,0,1,365.17,416Z"/><path class="cls-19" d="M573.92,482.94v14.42H560.3V482.94a6.81,6.81,0,1,1,13.62,0Z"/><path class="cls-20" d="M569.05,482.94v14.42H560.3V482.94a4.68,4.68,0,0,1,8.69-3.47l.06.15A4.63,4.63,0,0,1,569.05,482.94Z"/><rect class="cls-1" x="557.91" y="497.36" width="18.39" height="5.49"/><rect class="cls-11" x="557.91" y="502.85" width="18.39" height="9.31"/><path class="cls-19" d="M537.16,482.94v14.42H523.54V482.94a6.81,6.81,0,0,1,13.62,0Z"/><path class="cls-20" d="M532.3,482.94v14.42h-8.76V482.94a4.69,4.69,0,1,1,8.76,0Z"/><rect class="cls-1" x="521.15" y="497.36" width="18.39" height="5.49"/><rect class="cls-11" x="521.15" y="502.85" width="18.39" height="9.31"/><path class="cls-19" d="M486.05,482.94v14.42h13.62V482.94a6.81,6.81,0,0,0-13.62,0Z"/><path class="cls-20" d="M490.91,482.94v14.42h8.76V482.94a4.69,4.69,0,1,0-8.76,0Z"/><rect class="cls-1" x="483.66" y="497.36" width="18.39" height="5.49"/><rect class="cls-11" x="483.66" y="502.85" width="18.39" height="9.31"/><rect class="cls-25" x="49.49" y="637.24" width="72.51" height="66.49"/><rect class="cls-25" x="49.49" y="626.82" width="30.68" height="10.42"/><rect class="cls-3" x="80.17" y="626.82" width="8.12" height="10.42"/><polygon class="cls-1" points="703.12 325.6 703.12 375.91 692.5 370.3 655.44 350.76 692.5 331.2 703.12 325.6"/><polygon class="cls-2" points="703.12 325.6 703.12 375.91 692.33 370.3 692.33 331.2 703.12 325.6"/><rect class="cls-3" x="532.21" y="351.31" width="3.12" height="71.1"/><polygon class="cls-1" points="535.33 352.93 535.33 382.07 529.18 378.82 507.71 367.5 529.18 356.18 535.33 352.93"/><polygon class="cls-2" points="535.33 352.93 535.33 382.07 529.08 378.82 529.08 356.18 535.33 352.93"/><rect class="cls-3" x="556.42" y="476.98" width="235.49" height="185.06"/><rect class="cls-7" x="556.42" y="614.34" width="235.49" height="47.7"/><polygon class="cls-24" points="791.9 476.98 509.73 476.98 509.73 408.02 745.85 408.02 791.9 476.98"/><rect class="cls-7" x="555.98" y="477.16" width="235.49" height="3.54"/><polyline class="cls-13" points="702.73 438.75 738.05 438.75 724.74 460.77"/><path class="cls-12" d="M731.2,438.75h9.1a6.46,6.46,0,0,1,6.46,6.46h0v15.56h-22V445.21A6.46,6.46,0,0,1,731.2,438.75Z"/><path class="cls-13" d="M741.89,449.76v11H731.13v-11a5.38,5.38,0,0,1,10.76,0Z"/><path class="cls-20" d="M739,449.76v11h-7.84v-11a4,4,0,0,1,7.82-1.67.24.24,0,0,1,0,.08A3.87,3.87,0,0,1,739,449.76Z"/><polyline class="cls-13" points="577.51 438.75 612.84 438.75 599.53 460.77"/><path class="cls-12" d="M606,438.75h9.1a6.46,6.46,0,0,1,6.46,6.46h0v15.56h-22V445.21A6.46,6.46,0,0,1,606,438.75Z"/><path class="cls-13" d="M616.67,449.76v11H605.92v-11a5.38,5.38,0,0,1,10.75,0Z"/><path class="cls-20" d="M613.76,449.76v11h-7.84v-11a4.07,4.07,0,1,1,7.84,0Z"/><polyline class="cls-13" points="640.12 438.75 675.45 438.75 662.13 460.77"/><path class="cls-12" d="M668.59,438.75h9.1a6.46,6.46,0,0,1,6.46,6.46h0v15.56h-22V445.21A6.46,6.46,0,0,1,668.59,438.75Z"/><path class="cls-13" d="M679.28,449.76v11H668.53v-11a5.38,5.38,0,0,1,10.75,0Z"/><path class="cls-20" d="M676.37,449.76v11h-7.84v-11a4,4,0,0,1,7.82-1.67.24.24,0,0,1,0,.08A3.87,3.87,0,0,1,676.37,449.76Z"/><polygon class="cls-13" points="463.22 476.98 509.73 476.98 509.73 408.02 509.27 408.02 463.22 476.98"/><polygon class="cls-13" points="556.25 476.98 509.73 476.98 509.73 408.02 510.2 408.02 556.25 476.98"/><rect class="cls-7" x="556.42" y="477.16" width="235.49" height="3.54"/><rect class="cls-26" x="463.22" y="476.98" width="96.06" height="185.06"/><rect class="cls-11" x="463.22" y="614.34" width="96.06" height="47.7"/><rect class="cls-3" x="463.22" y="477.16" width="96.06" height="3.54"/><path class="cls-19" d="M584.4,499.37v11.16H573.86V499.37a5.27,5.27,0,0,1,10.54,0Z"/><path class="cls-20" d="M580.64,499.37v11.16h-6.78V499.37a3.63,3.63,0,1,1,6.78,0Z"/><rect class="cls-1" x="572.01" y="510.53" width="14.24" height="4.25"/><rect class="cls-11" x="572.01" y="514.78" width="14.24" height="7.21"/><path class="cls-19" d="M623.88,499.37v11.16H613.33V499.37a5.28,5.28,0,0,1,10.55-.46A3.53,3.53,0,0,1,623.88,499.37Z"/><path class="cls-20" d="M620.11,499.37v11.16h-6.78V499.37a3.63,3.63,0,1,1,6.78,0Z"/><rect class="cls-1" x="611.49" y="510.53" width="14.24" height="4.25"/><rect class="cls-11" x="611.49" y="514.78" width="14.24" height="7.21"/><path class="cls-19" d="M663.35,499.37v11.16H652.81V499.37a5.27,5.27,0,0,1,10.54,0Z"/><path class="cls-20" d="M659.59,499.37v11.16h-6.78V499.37a3.63,3.63,0,1,1,6.78,0Z"/><rect class="cls-1" x="650.96" y="510.53" width="14.24" height="4.25"/><rect class="cls-11" x="650.96" y="514.78" width="14.24" height="7.21"/><path class="cls-19" d="M702.83,499.37v11.16H692.28V499.37a5.28,5.28,0,0,1,10.55,0Z"/><path class="cls-20" d="M699.06,499.37v11.16h-6.78V499.37a3.63,3.63,0,1,1,6.78,0Z"/><rect class="cls-1" x="690.44" y="510.53" width="14.24" height="4.25"/><rect class="cls-11" x="690.44" y="514.78" width="14.24" height="7.21"/><path class="cls-19" d="M742.3,499.37v11.16H731.76V499.37a5.27,5.27,0,0,1,10.54,0Z"/><path class="cls-20" d="M738.53,499.37v11.16h-6.77V499.37a3.63,3.63,0,1,1,6.73-2.71.36.36,0,0,1,0,.09A3.59,3.59,0,0,1,738.53,499.37Z"/><rect class="cls-1" x="729.91" y="510.53" width="14.24" height="4.25"/><rect class="cls-11" x="729.91" y="514.78" width="14.24" height="7.21"/><path class="cls-19" d="M781.78,499.37v11.16H771.23V499.37a5.28,5.28,0,0,1,10.55,0Z"/><path class="cls-20" d="M778,499.37v11.16h-6.78V499.37a3.63,3.63,0,1,1,6.78,0Z"/><rect class="cls-1" x="769.38" y="510.53" width="14.24" height="4.25"/><rect class="cls-11" x="769.38" y="514.78" width="14.24" height="7.21"/><path class="cls-19" d="M584.4,540.65v11.16H573.86V540.65a5.27,5.27,0,0,1,10.54,0Z"/><path class="cls-20" d="M580.64,540.65v11.16h-6.78V540.65a3.63,3.63,0,1,1,6.78,0Z"/><rect class="cls-1" x="572.01" y="551.81" width="14.24" height="4.25"/><rect class="cls-11" x="572.01" y="556.06" width="14.24" height="7.21"/><path class="cls-19" d="M623.88,540.65v11.16H613.33V540.65a5.28,5.28,0,0,1,10.55,0Z"/><path class="cls-20" d="M620.11,540.65v11.16h-6.78V540.65a3.63,3.63,0,1,1,6.78,0Z"/><rect class="cls-1" x="611.49" y="551.81" width="14.24" height="4.25"/><rect class="cls-11" x="611.49" y="556.06" width="14.24" height="7.21"/><path class="cls-19" d="M663.35,540.65v11.16H652.81V540.65a5.27,5.27,0,0,1,10.54,0Z"/><path class="cls-20" d="M659.59,540.65v11.16h-6.78V540.65a3.63,3.63,0,1,1,6.78,0Z"/><rect class="cls-1" x="650.96" y="551.81" width="14.24" height="4.25"/><rect class="cls-11" x="650.96" y="556.06" width="14.24" height="7.21"/><path class="cls-19" d="M702.83,540.65v11.16H692.28V540.65a5.28,5.28,0,0,1,10.55,0Z"/><path class="cls-20" d="M699.06,540.65v11.16h-6.78V540.65a3.63,3.63,0,1,1,6.78,0Z"/><rect class="cls-1" x="690.44" y="551.81" width="14.24" height="4.25"/><rect class="cls-11" x="690.44" y="556.06" width="14.24" height="7.21"/><path class="cls-19" d="M742.3,540.65v11.16H731.76V540.65a5.27,5.27,0,0,1,10.54,0Z"/><path class="cls-20" d="M738.53,540.65v11.16h-6.77V540.65a3.62,3.62,0,0,1,6.77-2.57A3.67,3.67,0,0,1,738.53,540.65Z"/><rect class="cls-1" x="729.91" y="551.81" width="14.24" height="4.25"/><rect class="cls-11" x="729.91" y="556.06" width="14.24" height="7.21"/><path class="cls-19" d="M781.78,540.65v11.16H771.23V540.65a5.28,5.28,0,0,1,10.55,0Z"/><path class="cls-20" d="M778,540.65v11.16h-6.78V540.65a3.63,3.63,0,1,1,6.78,0Z"/><rect class="cls-1" x="769.38" y="551.81" width="14.24" height="4.25"/><rect class="cls-11" x="769.38" y="556.06" width="14.24" height="7.21"/><path class="cls-19" d="M584.4,584.3v11.17H573.86V584.3a5.27,5.27,0,0,1,10.54,0Z"/><path class="cls-20" d="M580.64,584.3v11.17h-6.78V584.3a3.63,3.63,0,1,1,6.78,0Z"/><rect class="cls-1" x="572.01" y="595.47" width="14.24" height="4.25"/><rect class="cls-11" x="572.01" y="599.71" width="14.24" height="7.21"/><path class="cls-19" d="M623.88,584.3v11.17H613.33V584.3a5.28,5.28,0,0,1,10.55,0Z"/><path class="cls-20" d="M620.11,584.3v11.17h-6.78V584.3a3.63,3.63,0,1,1,6.78,0Z"/><rect class="cls-1" x="611.49" y="595.47" width="14.24" height="4.25"/><rect class="cls-11" x="611.49" y="599.71" width="14.24" height="7.21"/><path class="cls-19" d="M663.35,584.3v11.17H652.81V584.3a5.27,5.27,0,0,1,10.54,0Z"/><path class="cls-20" d="M659.59,584.3v11.17h-6.78V584.3a3.63,3.63,0,1,1,6.78,0Z"/><rect class="cls-1" x="650.96" y="595.47" width="14.24" height="4.25"/><rect class="cls-11" x="650.96" y="599.71" width="14.24" height="7.21"/><path class="cls-19" d="M702.83,584.3v11.17H692.28V584.3a5.28,5.28,0,0,1,10.55,0Z"/><path class="cls-20" d="M699.06,584.3v11.17h-6.78V584.3a3.63,3.63,0,1,1,6.78,0Z"/><rect class="cls-1" x="690.44" y="595.47" width="14.24" height="4.25"/><rect class="cls-11" x="690.44" y="599.71" width="14.24" height="7.21"/><path class="cls-19" d="M742.3,584.3v11.17H731.76V584.3a5.25,5.25,0,0,1,3.38-4.92A5.15,5.15,0,0,1,737,579a5.27,5.27,0,0,1,5.27,5.27h0Z"/><path class="cls-20" d="M738.53,584.3v11.17h-6.77V584.3a3.62,3.62,0,0,1,6.77-2.57A3.67,3.67,0,0,1,738.53,584.3Z"/><rect class="cls-1" x="729.91" y="595.47" width="14.24" height="4.25"/><rect class="cls-11" x="729.91" y="599.71" width="14.24" height="7.21"/><path class="cls-19" d="M781.78,584.3v11.17H771.23V584.3a5.28,5.28,0,0,1,10.55,0Z"/><path class="cls-20" d="M778,584.3v11.17h-6.78V584.3a3.63,3.63,0,1,1,6.78,0Z"/><rect class="cls-1" x="769.38" y="595.47" width="14.24" height="4.25"/><rect class="cls-11" x="769.38" y="599.71" width="14.24" height="7.21"/><path class="cls-19" d="M584.4,499.37v11.16H573.86V499.37a5.27,5.27,0,0,1,10.54,0Z"/><path class="cls-20" d="M580.64,499.37v11.16h-6.78V499.37a3.63,3.63,0,1,1,6.78,0Z"/><rect class="cls-1" x="572.01" y="510.53" width="14.24" height="4.25"/><rect class="cls-11" x="572.01" y="514.78" width="14.24" height="7.21"/><path class="cls-19" d="M623.88,499.37v11.16H613.33V499.37a5.28,5.28,0,0,1,10.55-.46A3.53,3.53,0,0,1,623.88,499.37Z"/><path class="cls-20" d="M620.11,499.37v11.16h-6.78V499.37a3.63,3.63,0,1,1,6.78,0Z"/><rect class="cls-1" x="611.49" y="510.53" width="14.24" height="4.25"/><rect class="cls-11" x="611.49" y="514.78" width="14.24" height="7.21"/><path class="cls-19" d="M663.35,499.37v11.16H652.81V499.37a5.27,5.27,0,0,1,10.54,0Z"/><path class="cls-20" d="M659.59,499.37v11.16h-6.78V499.37a3.63,3.63,0,1,1,6.78,0Z"/><rect class="cls-1" x="650.96" y="510.53" width="14.24" height="4.25"/><rect class="cls-11" x="650.96" y="514.78" width="14.24" height="7.21"/><path class="cls-19" d="M702.83,499.37v11.16H692.28V499.37a5.28,5.28,0,0,1,10.55,0Z"/><path class="cls-20" d="M699.06,499.37v11.16h-6.78V499.37a3.63,3.63,0,1,1,6.78,0Z"/><rect class="cls-1" x="690.44" y="510.53" width="14.24" height="4.25"/><rect class="cls-11" x="690.44" y="514.78" width="14.24" height="7.21"/><path class="cls-19" d="M584.4,540.65v11.16H573.86V540.65a5.27,5.27,0,0,1,10.54,0Z"/><path class="cls-20" d="M580.64,540.65v11.16h-6.78V540.65a3.63,3.63,0,1,1,6.78,0Z"/><rect class="cls-1" x="572.01" y="551.81" width="14.24" height="4.25"/><rect class="cls-11" x="572.01" y="556.06" width="14.24" height="7.21"/><path class="cls-19" d="M623.88,540.65v11.16H613.33V540.65a5.28,5.28,0,0,1,10.55,0Z"/><path class="cls-20" d="M620.11,540.65v11.16h-6.78V540.65a3.63,3.63,0,1,1,6.78,0Z"/><rect class="cls-1" x="611.49" y="551.81" width="14.24" height="4.25"/><rect class="cls-11" x="611.49" y="556.06" width="14.24" height="7.21"/><path class="cls-19" d="M663.35,540.65v11.16H652.81V540.65a5.27,5.27,0,0,1,10.54,0Z"/><path class="cls-20" d="M659.59,540.65v11.16h-6.78V540.65a3.63,3.63,0,1,1,6.78,0Z"/><rect class="cls-1" x="650.96" y="551.81" width="14.24" height="4.25"/><rect class="cls-11" x="650.96" y="556.06" width="14.24" height="7.21"/><path class="cls-19" d="M702.83,540.65v11.16H692.28V540.65a5.28,5.28,0,0,1,10.55,0Z"/><path class="cls-20" d="M699.06,540.65v11.16h-6.78V540.65a3.63,3.63,0,1,1,6.78,0Z"/><rect class="cls-1" x="690.44" y="551.81" width="14.24" height="4.25"/><rect class="cls-11" x="690.44" y="556.06" width="14.24" height="7.21"/><path class="cls-19" d="M584.4,584.3v11.17H573.86V584.3a5.27,5.27,0,0,1,10.54,0Z"/><path class="cls-20" d="M580.64,584.3v11.17h-6.78V584.3a3.63,3.63,0,1,1,6.78,0Z"/><rect class="cls-1" x="572.01" y="595.47" width="14.24" height="4.25"/><rect class="cls-11" x="572.01" y="599.71" width="14.24" height="7.21"/><path class="cls-19" d="M623.88,584.3v11.17H613.33V584.3a5.28,5.28,0,0,1,10.55,0Z"/><path class="cls-20" d="M620.11,584.3v11.17h-6.78V584.3a3.63,3.63,0,1,1,6.78,0Z"/><rect class="cls-1" x="611.49" y="595.47" width="14.24" height="4.25"/><rect class="cls-11" x="611.49" y="599.71" width="14.24" height="7.21"/><path class="cls-19" d="M663.35,584.3v11.17H652.81V584.3a5.27,5.27,0,0,1,10.54,0Z"/><path class="cls-20" d="M659.59,584.3v11.17h-6.78V584.3a3.63,3.63,0,1,1,6.78,0Z"/><rect class="cls-1" x="650.96" y="595.47" width="14.24" height="4.25"/><rect class="cls-11" x="650.96" y="599.71" width="14.24" height="7.21"/><path class="cls-19" d="M702.83,584.3v11.17H692.28V584.3a5.28,5.28,0,0,1,10.55,0Z"/><path class="cls-20" d="M699.06,584.3v11.17h-6.78V584.3a3.63,3.63,0,1,1,6.78,0Z"/><rect class="cls-1" x="690.44" y="595.47" width="14.24" height="4.25"/><rect class="cls-11" x="690.44" y="599.71" width="14.24" height="7.21"/><path class="cls-19" d="M524.2,499.37v11.16h10.54V499.37a5.27,5.27,0,0,0-10.54,0Z"/><path class="cls-20" d="M528,499.37v11.16h6.78V499.37a3.63,3.63,0,1,0-6.78,0Z"/><rect class="cls-1" x="522.35" y="510.53" width="14.24" height="4.25"/><rect class="cls-11" x="522.35" y="514.78" width="14.24" height="7.21"/><path class="cls-19" d="M484.72,499.37v11.16h10.55V499.37a5.28,5.28,0,0,0-10.55-.46A3.53,3.53,0,0,0,484.72,499.37Z"/><path class="cls-20" d="M488.49,499.37v11.16h6.78V499.37a3.63,3.63,0,1,0-6.78,0Z"/><rect class="cls-1" x="482.88" y="510.53" width="14.24" height="4.25"/><rect class="cls-11" x="482.88" y="514.78" width="14.24" height="7.21"/><path class="cls-19" d="M524.2,540.65v11.16h10.54V540.65a5.27,5.27,0,0,0-10.54,0Z"/><path class="cls-20" d="M528,540.65v11.16h6.78V540.65a3.63,3.63,0,1,0-6.78,0Z"/><rect class="cls-1" x="522.35" y="551.81" width="14.24" height="4.25"/><rect class="cls-11" x="522.35" y="556.06" width="14.24" height="7.21"/><path class="cls-19" d="M484.72,540.65v11.16h10.55V540.65a5.28,5.28,0,0,0-10.55,0Z"/><path class="cls-20" d="M488.49,540.65v11.16h6.78V540.65a3.63,3.63,0,1,0-6.78,0Z"/><rect class="cls-1" x="482.88" y="551.81" width="14.24" height="4.25"/><rect class="cls-11" x="482.88" y="556.06" width="14.24" height="7.21"/><path class="cls-19" d="M524.2,584.3v11.17h10.54V584.3a5.27,5.27,0,0,0-10.54,0Z"/><path class="cls-20" d="M528,584.3v11.17h6.78V584.3a3.63,3.63,0,1,0-6.78,0Z"/><rect class="cls-1" x="522.35" y="595.47" width="14.24" height="4.25"/><rect class="cls-11" x="522.35" y="599.71" width="14.24" height="7.21"/><path class="cls-19" d="M484.72,584.3v11.17h10.55V584.3a5.28,5.28,0,0,0-10.55-.46A3.53,3.53,0,0,0,484.72,584.3Z"/><path class="cls-20" d="M488.49,584.3v11.17h6.78V584.3a3.63,3.63,0,1,0-6.78,0Z"/><rect class="cls-1" x="482.88" y="595.47" width="14.24" height="4.25"/><rect class="cls-11" x="482.88" y="599.71" width="14.24" height="7.21"/><path class="cls-27" d="M520.82,456.51a11.09,11.09,0,0,1-10.23,11.06h-.86a11.09,11.09,0,1,1,0-22.18h.9A11.08,11.08,0,0,1,520.82,456.51Z"/><path class="cls-20" d="M520.82,456.51a10.27,10.27,0,1,1-10.23-11.05A11.09,11.09,0,0,1,520.82,456.51Z"/><rect class="cls-1" x="650.72" y="507.16" width="49.72" height="196.57"/><rect class="cls-3" x="700.44" y="507.16" width="49.72" height="196.57"/><polygon class="cls-28" points="700.44 507.93 650.72 507.93 635.3 484.03 700.44 484.03 700.44 507.93"/><polygon class="cls-11" points="750.16 507.93 700.44 507.93 700.44 484.03 765.58 484.03 750.16 507.93"/><rect class="cls-1" x="635.3" y="460.68" width="65.14" height="23.35"/><rect class="cls-2" x="650.72" y="445.53" width="7.15" height="15.15"/><rect class="cls-1" x="683.72" y="445.53" width="16.72" height="15.15"/><rect class="cls-1" x="635.3" y="445.53" width="16.72" height="15.15"/><rect class="cls-3" x="700.44" y="460.68" width="65.14" height="23.35"/><rect class="cls-11" x="743.01" y="445.53" width="7.15" height="15.15"/><rect class="cls-3" x="700.44" y="445.53" width="16.72" height="15.15"/><rect class="cls-3" x="748.86" y="445.53" width="16.72" height="15.15"/><rect class="cls-3" x="697.73" y="322.8" width="5.38" height="122.73"/><rect class="cls-11" x="697.73" y="421.22" width="5.38" height="24.31"/><path class="cls-19" d="M736.41,541.85v18.23H719.19V541.85a8.61,8.61,0,1,1,17.22,0Z"/><path class="cls-20" d="M730.26,541.85v18.23H719.19V541.85a5.93,5.93,0,1,1,11.07,0Z"/><rect class="cls-1" x="716.18" y="560.08" width="23.25" height="6.94"/><rect class="cls-11" x="716.18" y="567.02" width="23.25" height="11.77"/><path class="cls-19" d="M667,541.85v18.23h17.22V541.85a8.61,8.61,0,0,0-17.22,0Z"/><path class="cls-20" d="M673.12,541.85v18.23h11.07V541.85a5.93,5.93,0,1,0-11.07,0Z"/><rect class="cls-29" x="663.96" y="560.08" width="23.25" height="6.94"/><rect class="cls-2" x="663.96" y="567.02" width="23.25" height="11.77"/><polygon class="cls-1" points="160.43 325.6 160.43 375.91 149.81 370.3 112.75 350.76 149.81 331.2 160.43 325.6"/><polygon class="cls-2" points="160.43 325.6 160.43 375.91 149.64 370.3 149.64 331.2 160.43 325.6"/><rect class="cls-1" x="108.03" y="507.16" width="49.72" height="196.57"/><rect class="cls-3" x="157.75" y="507.16" width="49.72" height="196.57"/><polygon class="cls-28" points="157.75 507.93 108.03 507.93 92.61 484.03 157.75 484.03 157.75 507.93"/><polygon class="cls-11" points="207.47 507.93 157.75 507.93 157.75 484.03 222.89 484.03 207.47 507.93"/><rect class="cls-1" x="92.61" y="460.62" width="65.14" height="23.41"/><rect class="cls-1" x="92.61" y="445.53" width="15.42" height="15.09"/><rect class="cls-1" x="142.33" y="445.53" width="15.42" height="15.09"/><rect class="cls-2" x="108.03" y="445.53" width="7.15" height="15.15"/><rect class="cls-3" x="157.75" y="460.62" width="65.14" height="23.41"/><rect class="cls-11" x="200.32" y="445.53" width="7.15" height="15.15"/><rect class="cls-3" x="207.47" y="445.53" width="15.42" height="15.09"/><rect class="cls-3" x="157.74" y="445.53" width="15.42" height="15.09"/><rect class="cls-3" x="155.04" y="322.8" width="5.38" height="122.73"/><rect class="cls-11" x="155.04" y="421.22" width="5.38" height="24.31"/><path class="cls-19" d="M193.72,541.85v18.23H176.5V541.85a8.61,8.61,0,1,1,17.22,0Z"/><path class="cls-20" d="M187.57,541.85v18.23H176.5V541.85a8.61,8.61,0,0,1,5.53-8A8.62,8.62,0,0,1,187.57,541.85Z"/><rect class="cls-1" x="173.48" y="560.08" width="23.25" height="6.94"/><rect class="cls-11" x="173.48" y="567.02" width="23.25" height="11.77"/><path class="cls-19" d="M124.28,541.85v18.23H141.5V541.85a8.61,8.61,0,0,0-17.22,0Z"/><path class="cls-20" d="M130.43,541.85v18.23H141.5V541.85a8.61,8.61,0,0,0-5.53-8A8.62,8.62,0,0,0,130.43,541.85Z"/><rect class="cls-29" x="121.27" y="560.08" width="23.25" height="6.94"/><rect class="cls-2" x="121.27" y="567.02" width="23.25" height="11.77"/><rect class="cls-25" x="190.32" y="637.24" width="477.55" height="66.49"/><rect class="cls-25" x="190.32" y="626.82" width="30.68" height="10.42"/><rect class="cls-3" x="221" y="626.82" width="8.12" height="10.42"/><rect class="cls-25" x="253" y="626.82" width="30.68" height="10.42"/><rect class="cls-3" x="283.68" y="626.82" width="8.12" height="10.42"/><rect class="cls-25" x="315.68" y="626.82" width="30.68" height="10.42"/><rect class="cls-3" x="346.36" y="626.82" width="8.12" height="10.42"/><rect class="cls-25" x="378.36" y="626.82" width="30.68" height="10.42"/><rect class="cls-3" x="409.04" y="626.82" width="8.12" height="10.42"/><rect class="cls-25" x="441.03" y="626.82" width="30.68" height="10.42"/><rect class="cls-3" x="471.72" y="626.82" width="8.12" height="10.42"/><rect class="cls-25" x="503.71" y="626.82" width="30.68" height="10.42"/><rect class="cls-3" x="534.4" y="626.82" width="8.12" height="10.42"/><rect class="cls-25" x="566.39" y="626.82" width="30.68" height="10.42"/><rect class="cls-3" x="597.07" y="626.82" width="8.12" height="10.42"/><rect class="cls-25" x="629.07" y="626.82" width="30.68" height="10.42"/><rect class="cls-3" x="659.75" y="626.82" width="8.12" height="10.42"/><path class="cls-30" d="M471.34,684.56v19.17h-85V684.56A42.52,42.52,0,0,1,428.82,642h0a42.53,42.53,0,0,1,42.52,42.54Z"/><path class="cls-31" d="M471.34,684.56v19.17H400.75V684.56a42.51,42.51,0,0,1,35.3-41.9A42.53,42.53,0,0,1,471.34,684.56Z"/><path class="cls-19" d="M573.92,314.39v14.43H560.3V314.39a6.81,6.81,0,0,1,13.62,0Z"/><path class="cls-20" d="M569.05,314.39v14.43H560.3V314.39a4.68,4.68,0,0,1,8.69-3.47l.06.15A4.63,4.63,0,0,1,569.05,314.39Z"/><rect class="cls-1" x="557.91" y="328.82" width="18.39" height="5.49"/><rect class="cls-11" x="557.91" y="334.3" width="18.39" height="9.31"/><path class="cls-19" d="M537.16,314.39v14.43H523.54V314.39a6.81,6.81,0,0,1,13.62,0Z"/><path class="cls-20" d="M532.3,314.39v14.43h-8.76V314.39a4.69,4.69,0,1,1,8.76,0Z"/><rect class="cls-1" x="521.15" y="328.82" width="18.39" height="5.49"/><rect class="cls-11" x="521.15" y="334.3" width="18.39" height="9.31"/><path class="cls-19" d="M486.05,314.39v14.43h13.62V314.39a6.81,6.81,0,0,0-13.62,0Z"/><path class="cls-20" d="M490.91,314.39v14.43h8.76V314.39a4.69,4.69,0,1,0-8.76,0Z"/><rect class="cls-1" x="483.66" y="328.82" width="18.39" height="5.49"/><rect class="cls-11" x="483.66" y="334.3" width="18.39" height="9.31"/><path class="cls-19" d="M447.32,314.39v14.43H461V314.39a6.82,6.82,0,0,0-13.63,0Z"/><path class="cls-20" d="M452.19,314.39v14.43H461V314.39a6.81,6.81,0,0,0-4.38-6.36A6.84,6.84,0,0,0,452.19,314.39Z"/><rect class="cls-1" x="444.94" y="328.82" width="18.39" height="5.49"/><rect class="cls-11" x="444.94" y="334.3" width="18.39" height="9.31"/><path class="cls-19" d="M573.92,370.58V385H560.3V370.58a6.81,6.81,0,1,1,13.62,0Z"/><path class="cls-20" d="M569.05,370.58V385H560.3V370.58a4.69,4.69,0,1,1,8.75,0Z"/><rect class="cls-1" x="557.91" y="385" width="18.39" height="5.49"/><rect class="cls-11" x="557.91" y="390.49" width="18.39" height="9.31"/><path class="cls-19" d="M486.05,370.58V385h13.62V370.58a6.81,6.81,0,1,0-13.62,0Z"/><path class="cls-20" d="M490.91,370.58V385h8.76V370.58a4.69,4.69,0,1,0-8.76,0Z"/><rect class="cls-1" x="483.66" y="385" width="18.39" height="5.49"/><rect class="cls-11" x="483.66" y="390.49" width="18.39" height="9.31"/><path class="cls-19" d="M447.32,370.58V385H461V370.58a6.82,6.82,0,0,0-13.63,0Z"/><path class="cls-20" d="M452.19,370.58V385H461V370.58a6.81,6.81,0,0,0-4.38-6.37A6.82,6.82,0,0,0,452.19,370.58Z"/><rect class="cls-1" x="444.94" y="385" width="18.39" height="5.49"/><rect class="cls-11" x="444.94" y="390.49" width="18.39" height="9.31"/><path class="cls-19" d="M447.32,426.76v14.42H461V426.76a6.82,6.82,0,0,0-13.63,0Z"/><path class="cls-20" d="M452.19,426.76v14.42H461V426.76a6.81,6.81,0,0,0-4.38-6.37A6.82,6.82,0,0,0,452.19,426.76Z"/><rect class="cls-1" x="444.94" y="441.18" width="18.39" height="5.49"/><rect class="cls-11" x="444.94" y="446.67" width="18.39" height="9.31"/><path class="cls-19" d="M447.32,482.94v14.42H461V482.94a6.82,6.82,0,0,0-13.63,0Z"/><path class="cls-20" d="M452.19,482.94v14.42H461V482.94a6.8,6.8,0,0,0-4.38-6.36A6.8,6.8,0,0,0,452.19,482.94Z"/><rect class="cls-1" x="444.94" y="497.36" width="18.39" height="5.49"/><rect class="cls-11" x="444.94" y="502.85" width="18.39" height="9.31"/><rect class="cls-25" x="739.43" y="637.24" width="72.51" height="66.49"/><rect class="cls-25" x="781.26" y="626.82" width="30.68" height="10.42"/><rect class="cls-3" x="773.14" y="626.82" width="8.12" height="10.42"/><rect class="cls-32" x="246.33" y="653.09" width="28.79" height="8.95" rx="3.69"/><rect class="cls-32" x="127.11" y="517.51" width="28.79" height="8.95" rx="3.69"/><rect class="cls-32" x="302.01" y="664.25" width="25.45" height="8.95" rx="3.69"/><rect class="cls-32" x="703.45" y="602.45" width="25.45" height="8.95" rx="3.69"/><rect class="cls-32" x="219.74" y="680.2" width="23.59" height="8.95" rx="3.69"/><rect class="cls-32" x="124.17" y="638.18" width="23.59" height="8.95" rx="3.69"/><rect class="cls-32" x="63.54" y="678.04" width="28.79" height="8.95" rx="3.69"/><rect class="cls-32" x="337.62" y="684.68" width="21.5" height="10.54" rx="3.69"/><rect class="cls-32" x="493.76" y="653.09" width="28.99" height="8.95" rx="3.69"/><rect class="cls-32" x="594.86" y="651.74" width="18.48" height="8.95" rx="3.69"/><rect class="cls-32" x="514.72" y="676.24" width="24.88" height="10.75" rx="3.69"/><rect class="cls-32" x="607.8" y="685.46" width="21.61" height="10.56" rx="3.69"/><rect class="cls-32" x="765.15" y="657.57" width="24.14" height="8.95" rx="3.69"/><rect class="cls-32" x="671.65" y="659.77" width="24.14" height="8.95" rx="3.69"/><rect class="cls-32" x="752.75" y="688.6" width="19.68" height="11.09" rx="3.69"/><rect class="cls-32" x="658.69" y="597.77" width="19.68" height="11.09" rx="3.69"/><rect class="cls-32" x="166.66" y="679.13" width="19.68" height="11.09" rx="3.69"/><rect class="cls-33" y="703.73" width="856.58" height="11.46" rx="5.73"/></g><path class="cls-34" d="M1099.76,1343.49v92.07c-13.38,2-33.84,2.8-48.07.51-11.21-1.8-22.47.9-33.07-.77-6.54-1-14.34.38-21.62-.76l-12.71-.25H967.75l-24.16-.51-19.08-.51L873.39,1431l-40.95-1.52-25.94-1.53c-25.78-4.23-57-3.59-81.9-7.89-9.28-1.59-19-1.26-27.47-2.79l-48.33-4.58c-29.14-6.55-57.22-18.71-72.48-39.43l-11.2-27.46c-2.85-9.32-3.84-19.32-5.59-29.76-5.8-34.54,1.87-62.34,16.79-80.88,3.67-4.58,9.27-7.36,14-10.94l8.4-7.89,13.22-7.12c13.82-8.72,29.55-16.46,44-24.92l11.19-5.09c6.42-4,12.43-9.22,19.84-12.46,23.33-10.23,46.48-18.66,64.85-33.58,13.07-10.6,19.38-39,8.14-57.22-6.49-10.57-19.37-15.27-31.28-20.35a317.87,317.87,0,0,0-74-21.88c-18.89-3.21-39.36-1.46-58.75-4.57l-23.4-.51c-14.52-2.28-31.85-.51-47-.51-13.88,0-30.05-1.55-43,.51h-17.8l-68.93,2.54-61.8,6.87-23.15.51c-10.26,1.58-25.1,2.41-35.61.76H258.89l-19.84-1.78-12.71-.51c-10.93-1.79-22.36-2-32.56-4.07l-30.52-5.09c-17-4.28-34.82-8.47-50.62-14.75-9.63-3.83-19-9.14-28-13.73-15.43-7.88-32-15.82-35.61-35.36-5.74-31.14,23-51.84,39.68-62.31,19.45-12.23,46.63-15.69,72-22.13,14.09-3.58,29.66-6.78,44.25-10.43,9.39-2.34,18.77-2.81,27.73-5.08l44.76-12.47L297.55,847a185.65,185.65,0,0,0,42-18.83c8.44-5.27,22.41-15.33,27.47-23.65,8.65-14.23,12.76-31.45,18.31-49.09a181,181,0,0,1,18.5-40.25c14.84-.25,29.12.25,44,0-9.72,16.24-11.88,38.12-18.2,58.31-6.23,19.89-13,38.36-23.91,53.41l-12.46,14.25c-4.12,5.12-8.19,10.83-13.48,14.75-31.92,23.64-85.92,34.31-131.5,44.25L223,904c-13.5,2.94-27.48,5.87-40.19,9.66-13,3.88-29.1,8.14-36.11,18.06-2.52,3.56-3.44,8.66-4.84,13.23-1.43,4.72-4.2,11.88-2.54,18.31,3.51,13.61,14,14.56,26.2,19.33,14.3,5.57,32.74,6.93,50.1,9.92l17.3,1.27,32.05,1c8.4,1.3,18.74.76,28.23.76h14l63.84-4.32,19.08-.51,25.18-1,38.66-.76,19.33-.51c10.4-1.64,23.55-.51,34.84-.51h17.3c11.9-1.87,30.07-1.91,42,0l13.23.51h13.73c8.52,1.35,19,.44,27,1.78l35.87,2.54c12.46,2.07,25.95,2,39.17,4.33,27.85,4.93,57,7.72,82.4,15.26,9.3,2.76,16.57,7.08,24.42,10.68,11.37,5.22,19.89,8.71,28,16.79,8.8,8.79,18.14,18,23.4,30.27,7.52,17.47,6.4,51.84-2.54,67.14-24.63,42.13-70.22,65.46-110.14,92.33-20.16,13.57-56.19,21.19-46.29,61,8.45,34,42.22,24.11,77.07,29.76l10.43.26c30.75,5.58,66.13,2.5,97.16,7.37l30,1.27,72.49,7.12,22.64,1.28,45.27,3,11.7.25Z"/><polygon class="cls-35" points="470.34 703.73 399.75 703.73 387.87 715.19 463.89 715.19 470.34 703.73"/><polygon class="cls-36" points="398.67 704.8 469.63 705 468.7 706.65 396.75 706.65 398.67 704.8"/><polygon class="cls-36" points="395.28 708.03 467.81 708.24 466.87 709.89 393.37 709.89 395.28 708.03"/><polygon class="cls-36" points="391.67 711.52 465.78 711.72 464.85 713.37 389.76 713.37 391.67 711.52"/></g></g></svg>