<svg id="Layer_1" data-name="Layer 1" xmlns="http://www.w3.org/2000/svg" viewBox="0 0 220.25 95.93"><defs><style>.cls-1{fill:#e1e1e1;}.cls-2{fill:#fff;}</style></defs><title>Artboard 3</title><path class="cls-1" d="M186.72,55.42a18.44,18.44,0,0,0-2.49.37c-.27-5.61-5.17-12.21-12.87-16.48-6.74-3.74-13.87-4.71-18.83-3.06a8.32,8.32,0,0,0,1.34-5.06c-.66-8.25-15.13-13.81-32.32-12.42A56.75,56.75,0,0,0,103.74,23a10.48,10.48,0,0,0,.15-2.8c-.73-9-12.81-15.47-27-14.33S51.86,15.27,52.59,24.33a10.53,10.53,0,0,0,.25,1.59,32.63,32.63,0,0,0-10.35-.77C30,26.16,20.33,33.66,21,41.91a11.35,11.35,0,0,0,3.71,7.28,33.75,33.75,0,0,0-3.47.1C8.88,50.29-.61,57.5,0,65.39s11.16,13.49,23.5,12.5l.67-.07A4.8,4.8,0,0,0,24,79.54c.48,6,12.55,10,26.95,8.83A56.1,56.1,0,0,0,63.51,86c1,4.92,15.17,7.78,32.23,6.4a89.1,89.1,0,0,0,19.45-3.59h0A2.27,2.27,0,0,0,115,90c.38,4.65,17.16,7.08,37.5,5.44S189,88.69,188.61,84h0l.43,0c9.52-.77,16.72-7.79,16.09-15.69S196.24,54.65,186.72,55.42Z"/><path class="cls-2" d="M201.82,49.68a21.93,21.93,0,0,0-2.49.37c-.27-5.6-5.18-12.2-12.87-16.47-6.75-3.74-13.88-4.72-18.83-3.06A8.39,8.39,0,0,0,169,25.46c-.67-8.25-15.14-13.81-32.32-12.42a56.61,56.61,0,0,0-17.81,4.22,10.91,10.91,0,0,0,.14-2.8c-.73-9-12.8-15.47-27-14.33S67,9.54,67.68,18.6a12,12,0,0,0,.25,1.59,32.85,32.85,0,0,0-10.34-.78c-12.54,1-22.17,8.52-21.5,16.76a11.3,11.3,0,0,0,3.71,7.28c-1.14,0-2.3,0-3.48.11-12.34,1-21.83,8.2-21.19,16.1s11.16,13.49,23.5,12.5l.67-.07a5,5,0,0,0-.18,1.72c.49,6,12.56,10,27,8.83a56.9,56.9,0,0,0,12.53-2.39c1,4.92,15.17,7.77,32.23,6.4a89.22,89.22,0,0,0,19.45-3.59h0a2.18,2.18,0,0,0-.26,1.2c.37,4.65,17.16,7.08,37.49,5.44S204.08,83,203.7,78.31v0h.42c9.53-.77,16.73-7.79,16.09-15.69S211.34,48.92,201.82,49.68Z"/></svg>