<svg id="Layer_1" data-name="Layer 1" xmlns="http://www.w3.org/2000/svg" viewBox="0 0 141.36 97.2"><defs><style>.cls-1{fill:#e2e2dc;}.cls-2{fill:#fff;}</style></defs><title>cloud3</title><path class="cls-1" d="M105.86,71.17c-3.88,5.62-11.2,9.42-19.6,9.42a24.53,24.53,0,0,1-17.35-6.75c-1.75.2-3.53.37-5.31.53-3.68,7.06-11.84,12-21.33,12S24.75,81.52,21,74.55C6.84,71.68,5.87,63.47,5.87,52A13.3,13.3,0,0,1,6,50.48c-3.8,3.69-6,7.91-6,12.4C0,74.32,1,82.53,15.16,85.4c3.72,7,11.83,11.8,21.24,11.8s17.66-4.92,21.33-12c1.78-.16,3.56-.34,5.31-.53A24.6,24.6,0,0,0,80.4,91.44c8.39,0,15.71-3.8,19.59-9.42a36.28,36.28,0,0,0,5,.35c12.75,0,23.09-6.61,23.09-14.77a7.89,7.89,0,0,0-.06-1c-4.22,3-10.35,4.89-17.17,4.89A36,36,0,0,1,105.86,71.17Z"/><path class="cls-2" d="M111,13.83a33.92,33.92,0,0,0-6.1.55C104.63,6.41,95.44,0,84.12,0,76.36,0,69.6,3,66,7.48a23.4,23.4,0,0,0-5-.54,23.07,23.07,0,0,0-17.81,8.39c-5.93-1.33-12.66-.55-19.5,3.8a18.23,18.23,0,0,0-3.14,2.53,17.75,17.75,0,0,0-2.66,3.39,26.72,26.72,0,0,0-4,12.77,24.1,24.1,0,0,0,.65,6.62,37.05,37.05,0,0,0-8.59,6A13.3,13.3,0,0,0,5.87,52c0,11.44,1,19.65,15.15,22.52,3.73,7,11.83,11.8,21.25,11.8s17.65-4.92,21.33-12c1.78-.16,3.56-.33,5.31-.53a24.53,24.53,0,0,0,17.35,6.75c8.4,0,15.72-3.8,19.6-9.42a36,36,0,0,0,4.94.35c6.82,0,13-1.89,17.17-4.89a10.11,10.11,0,0,0-.85-3.13,29.92,29.92,0,0,0,6.6-5,25.84,25.84,0,0,0,6.9-11.94,23.78,23.78,0,0,0,.74-5.87C141.36,25.87,127.77,13.83,111,13.83Z"/></svg>