<svg xmlns="http://www.w3.org/2000/svg" viewBox="0 0 1929.48 2259.91"><defs><style>.cls-1{fill:#b0ab68;}.cls-10,.cls-2,.cls-8{fill:none;}.cls-3{opacity:0.3;}.cls-4{fill:#92b9e3;}.cls-5{fill:#a19851;}.cls-6{fill:#737043;}.cls-7{fill:#c5be7a;opacity:0.8;isolation:isolate;}.cls-10,.cls-8{stroke:#000;stroke-miterlimit:10;}.cls-8{stroke-width:3px;}.cls-9{fill:#111110;}.cls-10{stroke-width:5px;}</style></defs><title>Artboard 1</title><g id="Layer_1" data-name="Layer 1"><g id="Layer_2-2" data-name="Layer 2-2"><g id="lift-frame"><g id="Elevator"><g id="frame"><g id="Lys"><path id="Path_206" data-name="Path 206" class="cls-1" d="M1389.34,1787.18v414.18H1156V1787.18h-59.56v422.54H1448.9v-422.5Z"/><rect id="Rectangle_244" data-name="Rectangle 244" class="cls-1" x="1156.02" y="1778.86" width="233.32" height="8.32"/><path id="Path_207" data-name="Path 207" class="cls-1" d="M1379,1787.18v414.18H1166.12V1787.18h-54.34v422.54h321.56v-422.5Z"/><rect id="Rectangle_245" data-name="Rectangle 245" class="cls-1" x="1166.13" y="1778.86" width="212.88" height="8.32"/><path id="lys-2" class="cls-1" d="M1837.9,1950.35v212.79H94.11V1952.72H76.92v234.54H1855.09V1950.35Z"/></g><path id="Path_210" data-name="Path 210" class="cls-2" d="M1826.39,1950.72h-57.68a493.3,493.3,0,0,1-94.21-5.21c-22.48-3.42-74.7-11.77-131.76-39.76-35-17.21-110.64-54.28-155.53-121.74-9.31-14-23.35-38.4-53-50.18-19.65-7.81-40.5-7.81-56.11-7.81-15.08,0-35.6,0-56.21,7.81-24.57,9.31-37.13,25.1-52.91,43.17-32.39,37.09-69,73.29-94.11,93.89a366.83,366.83,0,0,1-94.17,55.38c-57.7,23.21-112.94,27.76-154.81,26.45h-749V2181.1h1778.2V1950.72Z"/><g id="Group_2" data-name="Group 2" class="cls-3"><path id="Path_212" data-name="Path 212" class="cls-4" d="M1837.9,2181.11h17.19V1950.72H1729a494.89,494.89,0,0,1-54.48-5.21c-22.48-3.42-74.7-11.77-131.76-39.76-35-17.21-110.64-54.28-155.53-121.74-9.31-14-23.35-38.4-53-50.18-19.65-7.81-40.5-7.81-56.11-7.81-15.08,0-35.6,0-56.22,7.81-24.56,9.31-37.12,25.1-52.9,43.17-32.39,37.09-69,73.29-94.11,93.89a366.83,366.83,0,0,1-94.17,55.38C923,1949.48,867.8,1954,825.92,1952.72h-749V2181.1Z"/></g><path id="Path_213" data-name="Path 213" class="cls-5" d="M1388.25,1833.87v414.19H1162.14V1833.87h-57.72v422.5H1446v-422.5Z"/><rect class="cls-1" x="93.67" y="80.49" width="1744.29" height="17.97"/></g></g></g></g><path class="cls-2" d="M866.42,1903.63c-13.17,2.89-27.58,5.54-41.58,7.89h-749v-7.9l0,.23v7.68h749c14-2.3,28.41-5,41.58-7.88,40.59-8.92,79.77-17.54,120.7-41,29.2-16.69,54.33-37.47,77.52-60.47-23.17,23-48.29,43.74-77.5,60.45C946.2,1886.08,907,1894.69,866.42,1903.63Z"/><path class="cls-2" d="M1150.8,1705l-.19.17Z"/><path class="cls-2" d="M1129.37,1728.51l-1.73,2.28Z"/><path class="cls-2" d="M1137.78,1718.32c-.41.46-.8.92-1.2,1.38C1137,1719.24,1137.37,1718.78,1137.78,1718.32Z"/><path class="cls-2" d="M1422.53,1723c43.59,51,86.07,100.72,145.4,134,41,23,75.07,40.09,142.07,44.39l127.9-3V98.46H93.67V746.89l.44,3v1154H831.45c11.95-2,23.84-4.23,34.95-6.62,40.59-8.77,79.77-17.21,120.7-40.21,59.33-33.29,101.81-83,145.4-134q8.4-9.8,16.59-17.88l0,0a193.79,193.79,0,0,1,27.27-20.36,182.57,182.57,0,0,1,189.34-7.2,192.86,192.86,0,0,1,40.2,27.58Q1414.1,1713.17,1422.53,1723Z"/><path class="cls-2" d="M1126,1733c-.81,1.11-1.59,2.23-2.37,3.35C1124.44,1735.21,1125.22,1734.09,1126,1733Z"/><path class="cls-2" d="M1132.77,1724.23c-.53.65-1.06,1.29-1.58,2C1131.71,1725.52,1132.24,1724.88,1132.77,1724.23Z"/><path class="cls-2" d="M1481.41,1793c-7.76-8-15.32-16.33-22.78-24.76C1466.09,1776.69,1473.65,1785,1481.41,1793Z"/><path class="cls-2" d="M1141.3,1714.45l-1,1.13Z"/><path class="cls-2" d="M1674.51,1945.5c-22.48-3.43-74.7-11.76-131.76-39.76-35-17.17-110.67-54.24-155.53-121.74-9.29-14-23.33-38.4-53-50.18-19.65-7.82-40.5-7.82-56.11-7.82-15.08,0-35.6,0-56.22,7.82-24.51,9.31-37.12,25.1-52.9,43.17-32.39,37.08-69,73.28-94.11,93.89a366.83,366.83,0,0,1-94.17,55.38c-57.7,23.21-112.92,27.75-154.8,26.46h-749V2181.1H1855.09l0-230.39h-86.39A493.3,493.3,0,0,1,1674.51,1945.5Z"/><path class="cls-1" d="M1568,1862.66c40.93,23.42,79.78,43.24,149.21,46.59l137.92-3V98.46H1837.9v1800l-127.9,3c-67-4.3-101.1-21.42-142.07-44.39-59.33-33.28-101.81-83-145.4-134q-8.43-9.87-16.59-17.87a192.86,192.86,0,0,0-40.2-27.58,190.9,190.9,0,0,1,58.12,49.92c11.54,13.78,23,27.46,34.77,40.75,7.46,8.43,15,16.71,22.78,24.76C1507.1,1819.65,1534.92,1843.75,1568,1862.66Z"/><polygon class="cls-1" points="1855.12 76.38 1855.09 76.38 1855.12 76.4 1855.12 76.38"/><rect class="cls-1" x="1837.9" y="81.49" width="17.19" height="742.55"/><path class="cls-1" d="M1149.09,1705.18q-8.19,8.08-16.59,17.88c-43.59,51-86.07,100.71-145.4,134-40.93,23-80.11,31.44-120.7,40.21-11.11,2.39-23,4.61-34.95,6.62H94.11v-1154l-.44-3V98.46H76.09V1900.85l-.25,2.77v7.9h749c14-2.35,28.41-5,41.58-7.89,40.59-8.94,79.78-17.55,120.7-41,29.21-16.71,54.33-37.47,77.5-60.45,20.44-20.29,39.38-42.3,58.27-64.76.25-.37.51-.72.77-1.09.78-1.12,1.56-2.24,2.37-3.35l1.61-2.19,1.73-2.28c.61-.78,1.21-1.56,1.82-2.33s1-1.3,1.58-2c1.24-1.53,2.52-3,3.81-4.53.4-.46.79-.92,1.2-1.38.81-.92,1.64-1.83,2.47-2.74l1-1.13q4.5-4.82,9.31-9.33l.19-.17c2.11-2,4.25-3.92,6.45-5.79a191.26,191.26,0,0,1,19.15-14.37,193.79,193.79,0,0,0-27.27,20.36Z"/><rect class="cls-1" x="76.09" y="81.49" width="17.58" height="741.44"/><path class="cls-5" d="M1929.3,76.39V0H0V2255.56l7.48,3v.35H1855.09v1l74.39-3V76.38ZM1855.09,2181.1H76.91V1952.72h749c41.88,1.29,97.1-3.25,154.8-26.46a366.83,366.83,0,0,0,94.17-55.38c25.12-20.61,61.72-56.81,94.11-93.89,15.78-18.07,28.39-33.86,52.9-43.17,20.62-7.82,41.14-7.82,56.22-7.82,15.61,0,36.46,0,56.11,7.82,29.67,11.78,43.71,36.19,53,50.18,44.86,67.5,120.48,104.57,155.53,121.74,57.06,28,109.28,36.33,131.76,39.76a493.3,493.3,0,0,0,94.21,5.21h86.39Zm0-2082.64V1906.31l-137.9,3c-69.46-3.35-108.28-23.13-149.22-46.59-33.06-18.94-60.89-43.06-86.59-69.7-7.76-8-15.32-16.33-22.78-24.76-11.74-13.28-23.22-27-34.75-40.71a192.06,192.06,0,0,0-61.33-51.59c1.07.52,2.12,1.08,3.19,1.63a182.57,182.57,0,0,0-189.34,7.2l.51-.32A194,194,0,0,0,1150.8,1705l-.19.17q-4.81,4.5-9.31,9.33l-1,1.13c-.83.91-1.66,1.82-2.47,2.74-.41.46-.8.92-1.2,1.38q-1.93,2.23-3.81,4.53c-.53.65-1.06,1.29-1.58,2s-1.21,1.55-1.82,2.33l-1.73,2.28L1126,1733c-.81,1.11-1.59,2.23-2.37,3.35-.25.36-.51.71-.75,1.07-18.9,22.47-37.84,44.49-58.29,64.78-23.19,23-48.32,43.78-77.52,60.47-40.93,23.46-80.11,32.08-120.7,41-13.17,2.89-27.53,5.58-41.58,7.88h-749v-7.68l0-.23V1464l-.43-3V81.49H1855.12Z"/><path class="cls-5" d="M1855.09,1906.25l-137.92,3c-69.43-3.35-108.28-23.17-149.21-46.59-33-18.91-60.86-43-86.55-69.64,25.7,26.64,53.53,50.76,86.59,69.7,40.94,23.46,79.76,43.24,149.22,46.59l137.9-3V98.46h0Z"/><path class="cls-5" d="M1365.74,1677.59c-1.07-.55-2.12-1.11-3.19-1.63a192.06,192.06,0,0,1,61.33,51.59c11.53,13.76,23,27.43,34.75,40.71-11.75-13.29-23.23-27-34.77-40.75A190.9,190.9,0,0,0,1365.74,1677.59Z"/><polygon class="cls-5" points="1855.12 818.93 1855.12 76.4 1855.09 76.38 1855.09 818.93 1855.12 818.93"/><path class="cls-5" d="M1140.25,1715.58c-.83.91-1.66,1.82-2.47,2.74C1138.59,1717.4,1139.42,1716.49,1140.25,1715.58Z"/><path class="cls-5" d="M1127.64,1730.79,1126,1733Z"/><path class="cls-5" d="M1136.58,1719.7c-1.29,1.49-2.57,3-3.81,4.53Q1134.65,1721.94,1136.58,1719.7Z"/><path class="cls-5" d="M1131.19,1726.18c-.61.77-1.21,1.55-1.82,2.33C1130,1727.73,1130.58,1727,1131.19,1726.18Z"/><rect class="cls-5" x="75.41" y="77.49" width="0.68" height="741.44"/><polygon class="cls-5" points="76.09 98.46 75.41 98.46 75.41 1461.03 75.84 1464.03 75.84 1903.62 76.09 1900.85 76.09 98.46"/><path class="cls-5" d="M1150.8,1705a194,194,0,0,1,26.11-20.48l-.51.32a191.26,191.26,0,0,0-19.15,14.37C1155.05,1701,1152.91,1703,1150.8,1705Z"/><path class="cls-5" d="M1064.62,1802.18c20.45-20.29,39.39-42.31,58.29-64.78.24-.36.5-.71.75-1.07-.26.37-.52.72-.77,1.09C1104,1759.88,1085.06,1781.89,1064.62,1802.18Z"/><path class="cls-5" d="M1141.3,1714.45q4.5-4.82,9.31-9.33Q1145.8,1709.64,1141.3,1714.45Z"/></g><g id="controller"><ellipse id="_Path_" data-name="&lt;Path&gt;" class="cls-6" cx="1275.75" cy="1860.77" rx="170.76" ry="178.55"/><path id="_Path_2" data-name="&lt;Path&gt;" class="cls-2" d="M1117,1791.3a13.67,13.67,0,0,0-8.65.78v.16l-.48.2a14.42,14.42,0,0,0-8.08,10.24c-1.74,8.11,3.14,16.16,10.89,18s15.45-3.28,17.19-11.39-3.13-16.15-10.88-18Z"/><path id="_Path_3" data-name="&lt;Path&gt;" class="cls-6" d="M1134.77,1784.81a28.78,28.78,0,0,0-13.45-8.25,6.16,6.16,0,0,1-1.26,1.53,5.46,5.46,0,0,1-7.68-.61l-.2-.25a6,6,0,0,1-.87-1.57,27.62,27.62,0,0,0-6.41,1.35.48.48,0,0,1,0,.17c-.65.21-1.29.44-1.92.71a5.63,5.63,0,0,1-.15,2,4.21,4.21,0,0,1-4.27,4.15h0a4.12,4.12,0,0,1-3.11-1.67c-.63.54-1.26,1.11-1.86,1.72a27.92,27.92,0,0,0-2.27,2.58c-.46.56-.9,1.15-1.31,1.76a5.64,5.64,0,0,1-.33,7.73,5.09,5.09,0,0,1-3.83,1.43c-.1.33-.18.68-.25,1h-.14c-.2.83-.38,1.67-.52,2.54a30.69,30.69,0,0,0-.4,5.16h0a4.34,4.34,0,0,1,4.54,4.13h0a4.54,4.54,0,0,1-1.78,3.93,5.72,5.72,0,0,1-1.26.8c.15.49.31,1,.48,1.43l-.22.17a31.72,31.72,0,0,0,2.84,5.9l.25-.13a5.5,5.5,0,0,1,7.27,2.69l.1.24a6,6,0,0,1-.13,5l-.12.27a28.19,28.19,0,0,0,7.47,4.1.48.48,0,0,1,.06-.28c15.16,5.62,31.8-2.69,37.16-18.54a31.46,31.46,0,0,0-6.51-31.32Zm-24.08,35.85c-7.75-1.8-12.63-9.84-10.9-17.94a15.15,15.15,0,0,1,2.67-5.94,14.3,14.3,0,0,1,5.41-4.34l.48-.2v-.16a14.18,14.18,0,0,1,18.57,7.57h0c.08.19.16.38.23.58a15.3,15.3,0,0,1-7.8,19.66,13.82,13.82,0,0,1-8.65.77Z"/><path id="_Path_4" data-name="&lt;Path&gt;" class="cls-6" d="M1110.69,1831.61a48.68,48.68,0,0,0-24,12.41,10.19,10.19,0,0,1-5,13.53h0a10.4,10.4,0,0,1-2.68.82,9.44,9.44,0,0,1-3-.16,52.59,52.59,0,0,0-4.17,10.91,10.19,10.19,0,0,1,5.44,13,9.79,9.79,0,0,1-6.94,6.16c.15,1.46.34,2.93.61,4.46a55.21,55.21,0,0,0,2.31,8.56h.11a9.73,9.73,0,0,1,10.51,8.88v.12a10.41,10.41,0,0,1-1.69,6.77,52.57,52.57,0,0,0,7.92,7.72,9.31,9.31,0,0,1,13.15-.83l.44.41a10.31,10.31,0,0,1,2.91,8.89c26.58,7.67,54.08-8.65,61.42-36.44s-8.26-56.56-34.85-64.23a47.76,47.76,0,0,0-22.57-1Zm23.08,71.07a24,24,0,0,1-33.87-2.13q-.47-.52-.9-1.08a26.62,26.62,0,0,1,3.07-36.36,24,24,0,0,1,33.87,2.12c.32.35.62.72.91,1.09h0a26.63,26.63,0,0,1-3.08,36.4Z"/><ellipse id="_Path_5" data-name="&lt;Path&gt;" class="cls-7" cx="1275.2" cy="1847.6" rx="165.53" ry="173.09"/><ellipse id="_Path_6" data-name="&lt;Path&gt;" class="cls-5" cx="1275.2" cy="1850.96" rx="165.53" ry="173.09"/><path id="_Path_7" data-name="&lt;Path&gt;" class="cls-6" d="M1398.23,1863.55a26,26,0,0,0,13.42-5.76,107.63,107.63,0,0,1-7.2-47.17,26,26,0,0,0-27.26,5.65,113.87,113.87,0,0,0-19.71-34.7c12-1.79,21.29-11.88,22.55-24.48a99.55,99.55,0,0,1-34.58-28.64c-11.43,3.8-19,15.2-18.31,27.72a103.71,103.71,0,0,0-40.66-13,28.13,28.13,0,0,0-1.5-29.31,94.36,94.36,0,0,1-45.93,4.89,28.05,28.05,0,0,0,4.21,29,105.93,105.93,0,0,0-36.32,20.59,26.78,26.78,0,0,0-21.11-20.2,102.24,102.24,0,0,1-29.22,37.31,26.54,26.54,0,0,0,23.6,17.07,115.22,115.22,0,0,0-11.28,34.83,25.82,25.82,0,0,0-27.2.64,107.48,107.48,0,0,1,1.65,47.47,25.84,25.84,0,0,0,27.5-1.78,114.62,114.62,0,0,0,17.22,38.39,27.06,27.06,0,0,0-20.37,20,100.29,100.29,0,0,1,34.18,32.81,27.34,27.34,0,0,0,17.79-22.34,104.55,104.55,0,0,0,47.87,16,28.16,28.16,0,0,0,.52,25.69,94.51,94.51,0,0,1,48.89-6.7,28,28,0,0,0-5.83-24.89,106.53,106.53,0,0,0,37.14-23,26.79,26.79,0,0,0,21.57,18.77,102.63,102.63,0,0,1,27.93-38.45,26.41,26.41,0,0,0-24.16-16.09,116.66,116.66,0,0,0,10.16-42.72,25.61,25.61,0,0,0,14.44,2.39Z"/><path id="_Path_8" data-name="&lt;Path&gt;" class="cls-1" d="M1397,1856.06a26.19,26.19,0,0,0,13.43-5.76,107.44,107.44,0,0,1-7.21-47.16,26,26,0,0,0-27.22,5.58,113.29,113.29,0,0,0-19.71-34.69c12-1.79,21.29-11.88,22.56-24.48a99.41,99.41,0,0,1-34.57-28.64c-11.44,3.78-19,15.19-18.32,27.71a104.08,104.08,0,0,0-40.67-13,28.15,28.15,0,0,0-1.49-29.31,94.48,94.48,0,0,1-45.93,4.88,28.08,28.08,0,0,0,4.2,29,105.86,105.86,0,0,0-36.31,20.58,26.8,26.8,0,0,0-21.12-20.2,102.19,102.19,0,0,1-29.22,37.32A26.54,26.54,0,0,0,1179,1795a115.22,115.22,0,0,0-11.28,34.83,25.8,25.8,0,0,0-27.18.63,108.18,108.18,0,0,1,2.87,15.48,106.71,106.71,0,0,1-1.24,32,25.84,25.84,0,0,0,27.5-1.78,115.11,115.11,0,0,0,17.22,38.39,27.06,27.06,0,0,0-20.37,20,100.32,100.32,0,0,1,34.19,32.81,27.36,27.36,0,0,0,17.78-22.34,104.67,104.67,0,0,0,47.88,16,28.13,28.13,0,0,0,.51,25.69,94.54,94.54,0,0,1,48.9-6.71,28,28,0,0,0-5.83-24.88,106.91,106.91,0,0,0,37.14-23,26.71,26.71,0,0,0,21.56,18.75,102.58,102.58,0,0,1,27.94-38.43,26.39,26.39,0,0,0-24.17-16.09,116.66,116.66,0,0,0,10.16-42.72A25.53,25.53,0,0,0,1397,1856Z"/><g id="_Path_9" data-name="&lt;Path&gt;"><path id="Path_219" data-name="Path 219" class="cls-5" d="M1198.7,1902.1a25.12,25.12,0,0,0-5.47,1.27,103.19,103.19,0,0,1-10.42-21.35c-.48.36-1,.69-1.49,1a104,104,0,0,0,12.94,29.57,26.36,26.36,0,0,1,5.47-1.28c12.72-1.61,24.72,6.54,28.48,19.34a28.48,28.48,0,0,0-.13-4.62c-1.78-15.11-14.94-25.84-29.38-24Z"/><path id="Path_220" data-name="Path 220" class="cls-5" d="M1371.33,1862.72a104.82,104.82,0,0,1-7,24.85,25.35,25.35,0,0,0-6.74-.06c-14.47,1.66-24.91,15.28-23.32,30.41a28,28,0,0,0,1,4.78c.73-13.48,10.66-24.45,23.5-25.93a25.43,25.43,0,0,1,6.75.06,105.42,105.42,0,0,0,7.93-33.2C1372.7,1863.3,1372,1863,1371.33,1862.72Z"/><path id="Path_221" data-name="Path 221" class="cls-5" d="M1285.29,1927.6a27,27,0,0,0-22.72,20.52,94.73,94.73,0,0,1-33.33-10.93,28.73,28.73,0,0,1-.84,8.26,94.53,94.53,0,0,0,35.25,12c3.84-14.89,18.5-23.7,32.74-19.69a26.85,26.85,0,0,1,16.16,13,97,97,0,0,0,25-15.45,27.67,27.67,0,0,1-2.14-8.08v-.32a96.65,96.65,0,0,1-23.87,14.52A26.23,26.23,0,0,0,1285.29,1927.6Z"/><path id="Path_222" data-name="Path 222" class="cls-1" d="M1356.16,1836.72a27.76,27.76,0,0,1,10-20.27c-1-2.48-2.08-4.9-3.21-7.28a103.32,103.32,0,0,0-10.68-17.28,26.46,26.46,0,0,1-5.14,1.11c-14.45,1.86-27.61-8.89-29.39-24a26.73,26.73,0,0,1-.14-4.47c-.16-.53-.3-1.11-.43-1.62a93.81,93.81,0,0,0-28.17-8.72c-6.08,14-21.91,20.27-35.34,13.91a27.07,27.07,0,0,1-10.59-9,95.65,95.65,0,0,0-25.63,14.27v3.13a29.59,29.59,0,0,1,.91,4.59c1.58,15.14-8.86,28.76-23.33,30.43a26.37,26.37,0,0,1-7.63-.21,105.4,105.4,0,0,0-6,16.75c-.66,2.47-1.25,5-1.73,7.5,10.19,3.43,15.79,14.85,12.51,25.51a19.93,19.93,0,0,1-11.85,12.84c.71,2.78,1.56,5.51,2.54,8.21a103.23,103.23,0,0,0,10.41,21.36,26.36,26.36,0,0,1,5.47-1.28c14.45-1.86,27.6,8.88,29.39,24a29.78,29.78,0,0,1,.12,4.63,28,28,0,0,1-.82,5.45c.62.36,1.26.69,1.89,1a95,95,0,0,0,33.34,10.92c3.85-14.88,18.52-23.68,32.76-19.65a26.91,26.91,0,0,1,16.12,13,96.65,96.65,0,0,0,23.87-14.52l1.07-.88a28.06,28.06,0,0,1-1.18-3.29,29.23,29.23,0,0,1-1-4.78c-1.59-15.13,8.85-28.74,23.32-30.41a24.94,24.94,0,0,1,6.74.07,104.89,104.89,0,0,0,7-24.86q.63-4.11,1-8.33A26.91,26.91,0,0,1,1356.16,1836.72Z"/></g></g><g id="floors"><path class="cls-5" d="M1184.8,79.38c0,127.14-98.57,227.2-220.15,227.2S744.5,206.52,744.5,79.38Z"/><line class="cls-8" x1="769.23" y1="87.98" x2="821.56" y2="87.98"/><line class="cls-8" x1="1109.08" y1="87.98" x2="1161.41" y2="87.98"/><line class="cls-8" x1="965.81" y1="299.1" x2="965.81" y2="244.38"/><line class="cls-8" x1="1116.45" y1="225.05" x2="1079.45" y2="186.35"/><line class="cls-8" x1="830.88" y1="229.76" x2="867.88" y2="191.07"/><circle class="cls-9" cx="965.82" cy="85.92" r="23.78"/><line class="cls-10" x1="877.22" y1="86.18" x2="965.82" y2="85.92"/><polygon points="847.05 84.86 883.54 105.92 883.54 66.98 847.05 84.86"/></g></svg>