<svg id="Layer_1" data-name="Layer 1" xmlns="http://www.w3.org/2000/svg" viewBox="0 0 592.3 508.06">
    <defs>
        <style>
            .cls-1 {
                fill: #dddddd;
            }

        </style>
    </defs>
    <title>Artboard 1</title>
    <path class="cls-1" d="M592.27,303.59,588,299.17c-.77-1-1.54-2-2.31-3.05.51.69,1,1.37,1.54,2-.56-.77-1.11-1.58-1.7-2.3a19.22,19.22,0,0,0-1.44-1.92l-.47-.67L561.1,256.89l-.65-1.21c-2.14-4-4.71-8.72-7.61-14.12-3.43-6.1-7.39-12.9-11.79-20.57l-12.43-20.92c-.64-1.22-1.39-2.26-2-3.48v.17c-2.46-4.18-5-8.54-7.82-12.9q-31.21-51.69-38.09-58.69-1.77-1.74-14.79,26.58c-4.18,9.11-11.24,25-21,47.61v-.11l-.43.87L440.74,209c-1.93-1.74-3.86-3.65-5.79-5.75-3.53-4.18-6.32-7.5-8.25-9.94-3.75-4.35-6.64-7-8.89-8-1.61-.88-3.76-.88-6.54.17-2.68.87-4.83.7-6.54-.35-5.9-3.48-12.65-12.17-20-25.88-7.72-15.92-13.29-26.88-16.62-32.86v-.09a93.72,93.72,0,0,0-5.46-9c-1.5-2.22-2.79-4.1-3.86-5.67-.43-.7-.86-1.43-1.39-2.18a72.85,72.85,0,0,1-9-18.65c-2.35-9.89-4.18-17-5.36-21.44a59.71,59.71,0,0,0-8.46-19.26q-2.41-3.57-11.26-14.82A153.06,153.06,0,0,1,312.5,19.86c-4.83-8.42-9.11-14.15-12.65-17.17A16.14,16.14,0,0,0,296.53.6q-8.68-3.66-15.11,14.9C274.77,35.25,269.63,50,266.2,59.69a427.65,427.65,0,0,1-17.32,42.48q-1,2-9.32,25.54c-4.61,13-7.61,20.28-9.22,21.87l-.22.17L228,151.09a5.17,5.17,0,0,1-1.61.26L224,151l-2-1a17.34,17.34,0,0,1-2.15-1.66l-.42-.43a6.79,6.79,0,0,0-1.08-1.31l-7.76-9.43q-1.77-2.16-8.68-9.68a78.65,78.65,0,0,1-8-9.93c-.54-.87-1-1.77-1.52-2.69a28.21,28.21,0,0,0,1.62,2.69c-.1-.12-2.35-4.71-6.64-13.77-3-6.23-5.57-9.47-7.82-9.77a4.12,4.12,0,0,0-1.4.09h-.53v.21c-4.37,1.3-9.48,8.29-15.44,21-7.07,17.09-11.68,27.68-14,31.81-9.62,17.33-15,27-16.21,29-6.22,10.29-11.58,17.43-16,21.27v-.18a21.78,21.78,0,0,1-2.47,1.92c-.1.18-.21.35-.32.35L109,201.29a5.48,5.48,0,0,1-1.71.18h-2.36a5.24,5.24,0,0,1-1.29-.35L99,199.38a1.77,1.77,0,0,1-.85-.35l-1.29-.53a13.85,13.85,0,0,0-7.5-1.22,9.24,9.24,0,0,0-4.61,2.1l-1.07.69c-.09,0-.11.12-.18.16h0l0,0h0A32.39,32.39,0,0,0,80,203.73c-9.65,11.16-17,20.22-22.08,27-5.21,7-14,12.65-17.87,19.53-.67,1.21-2.44,3.27-3.77,3.53C15,257.94,4.89,264.07,0,269.57V508.06H592.27v-188h-.56c.2-5.1.46-10.21.56-15.31Z" />
</svg>
