<svg id="Layer_1" data-name="Layer 1" xmlns="http://www.w3.org/2000/svg" viewBox="0 0 263.74 270.8"><defs><style>.cls-1{fill:#f7db0d;}.cls-2{fill:#f9ab3a;}</style></defs><title>Artboard 1</title><polygon class="cls-1" points="233.81 173.59 263.74 160.94 235.37 139.49 261.97 120.61 237.19 109.25 257.38 84.35 223.14 78.9 243.36 55.84 213.8 52.91 213.37 33.82 193.35 45.99 185.03 12.39 165.97 30.73 152.07 0 132.82 26.83 107.33 1.59 99.04 33.16 78.32 15.4 72.58 46.07 48.75 32.31 48.75 64.8 15.31 62.64 30.21 92.77 0 104.72 27.88 126.82 0.86 145.09 25.37 157.01 4.62 181.44 33.07 186.63 21.59 207.45 47.1 204.46 42.43 229.39 67.61 220.53 75.32 255.03 94.79 237.12 107.99 268.16 125.44 244.98 140.34 270.8 152.31 250.07 171.16 270.8 178.82 246.84 195.4 257.8 197.46 223.94 216.64 234.44 215.9 201.97 249.39 203.36 233.81 173.59"/><ellipse class="cls-2" cx="131.87" cy="135.4" rx="92.56" ry="86.86"/></svg>